<svg xmlns="http://www.w3.org/2000/svg" viewBox="0 0 331.23 138.79"><defs><style>.cls-1{fill:#493a30;}</style></defs><title>Asset 8sig</title><g id="Layer_2" data-name="Layer 2"><g id="Layer_1-2" data-name="Layer 1"><path class="cls-1" d="M15.28,138.21a5.64,5.64,0,0,1-2.81-.78c-3.32-1.89-5.63-7-6.44-11.14A324.22,324.22,0,0,1,3.81,15.6C5,7.94,8.67-.13,15.47.2c3.16.15,5.82,2.23,7.78,4,19,17.38,21,45.54,21.39,72.89,0,3.15.1,7.06-1.72,10.2-1.66,2.86-4.63,4.69-7.54,6.32-.84.47-1.69.92-2.54,1.35a58.27,58.27,0,0,1,.39,6.47,99.06,99.06,0,0,1-.74,14.2,25.78,25.78,0,0,0,5.25,2.13c8.88,2.5,18.25,0,27.31-2.34l2-.52c22.6-5.85,45.87-8.77,69.19-10.4q-24.16.69-48.21,2.1l-2.11.12,1.94-.84A47.07,47.07,0,0,1,116,103l-.15.73a46.35,46.35,0,0,0-25.59,2q34.47-2,69.2-2.47c10.41-.42,20.8-.7,31.09-1,21-.56,42.79-1.13,64-3,18-1.55,36.69-4.35,51.63-14.06L283,64.9c-8.63-7.59-17.18-16.78-15.16-27.43l0-.26.26,0a49.29,49.29,0,0,1,45.31,18.09c4.14,5.36,5.94,10.45,5.35,15.14-.65,5.12-4.19,10-10.54,14.39l-.85.58,21.81,19.17-.73.16c-17.19,3.73-35.16,2.73-52.53,1.76l-2.82-.16c-37.7-2.07-75.73-2.84-113.68-2.28-31,1.26-62.21,3.84-92.25,11.63l-2,.52c-9.16,2.4-18.63,4.88-27.7,2.33a26.53,26.53,0,0,1-5.16-2.06A53.9,53.9,0,0,1,30.74,124q2,5.54,4.48,10.89a2.63,2.63,0,0,0,1.79-.78,2.58,2.58,0,0,0,.83-2l.75,0a3.49,3.49,0,0,1-3.64,3.55l-.22,0-.09-.2q-2.34-5-4.27-10.24-.25.76-.53,1.51c-2.95,7.94-6.61,9.07-9.16,8.62l-.1,0a7.49,7.49,0,0,1-3.33,2.62A5.78,5.78,0,0,1,15.28,138.21ZM15.08.94C9,.94,5.65,8.52,4.55,15.71A323.46,323.46,0,0,0,6.77,126.15c.78,4,3,8.86,6.07,10.63a4.8,4.8,0,0,0,4.16.37A6.55,6.55,0,0,0,19.79,135C14.32,133.21,10,123.9,10,116.75c0-7.83,3.32-12.11,8.21-15.31a40.57,40.57,0,0,1-1.66-3.76c-3.09-8.1-4.08-17.66-3.1-30.09l.07-.85.58.62a53.09,53.09,0,0,1,7.6,10.47q0-.35,0-.7v-.56l.52.21c6.75,2.75,9.55,10,10.56,17.41Q33.89,93.61,35,93c2.93-1.64,5.69-3.34,7.26-6,1.71-3,1.66-6.76,1.61-9.81C43.5,49.94,41.54,22,22.75,4.78,20.88,3.07,18.35,1.09,15.44,1Zm6,133.62c3.15.39,5.93-2.44,8.06-8.18q.44-1.19.81-2.4-1.17-3.25-2.18-6.56a53.59,53.59,0,0,1-5.64,15.42C21.8,133.41,21.46,134,21.07,134.56Zm-2.54-32.44c-4.67,3.09-7.86,7.21-7.82,14.63,0,7.64,4.77,16.25,9.55,17.65a20.37,20.37,0,0,0,1.19-1.93,53.08,53.08,0,0,0,5.83-16.62q-.54-1.84-1-3.69A36.16,36.16,0,0,1,18.54,102.12Zm9.53,13.68q1,3.5,2.24,6.94a54.64,54.64,0,0,0,1.38-6.69,29.57,29.57,0,0,1-3.32-2.18Q28.23,114.84,28.07,115.8Zm.41-2.78a29,29,0,0,0,3.32,2.24,99.39,99.39,0,0,0,.69-13.8,58,58,0,0,0-.36-6.13c-1.31.64-2.62,1.25-3.91,1.84A58.7,58.7,0,0,1,28.47,113Zm-1.19,0,.3,1.07c0-.25.07-.5.1-.75Zm-.34-1.28.84.72a57.92,57.92,0,0,0-.26-15l-.05,0c-1.1.5-2.18,1-3.23,1.49Q25.29,105.44,26.94,111.75Zm-7.77-10a35.74,35.74,0,0,0,6.76,9.09q-1.43-5.68-2.39-11.46A47.21,47.21,0,0,0,19.17,101.72Zm169.33,1.39c28.31.09,56.6.91,84.72,2.45l2.83.16c17.07,1,34.72,1.94,51.6-1.59L306.79,85.8c-15.11,9.89-34,12.72-52.15,14.29-21.25,1.83-43,2.4-64.06,3ZM14.11,68.5c-.86,11.9.14,21.11,3.12,28.91q.72,1.88,1.6,3.63a50.15,50.15,0,0,1,4.59-2.46A138.34,138.34,0,0,1,21.7,79.44,52.71,52.71,0,0,0,14.11,68.5ZM22.49,81a137.8,137.8,0,0,0,1.63,17.22c1-.47,2-.93,3-1.4l.25-.11A57.22,57.22,0,0,0,22.49,81Zm0-1.76A57.82,57.82,0,0,1,28.11,96.4c1.3-.59,2.62-1.21,3.93-1.86-.92-7-3.48-14-9.62-16.84Q22.43,78.48,22.44,79.26ZM268.55,37.87c-1.77,10.17,6.56,19.08,15,26.46l23.35,20.52,1-.69c6.17-4.3,9.6-9,10.22-13.87.57-4.48-1.18-9.39-5.2-14.58A48.55,48.55,0,0,0,268.55,37.87Z"/><path class="cls-1" d="M15.28,138.21a6,6,0,0,1-3.72-1.39,11.72,11.72,0,0,1-2.65-3A22.53,22.53,0,0,1,6,126.28c-1-5.3-1.94-10.62-2.69-16Q1,94.29.29,78.1T.52,45.73A299.17,299.17,0,0,1,4,13.54,27.89,27.89,0,0,1,6.71,5.89,15.41,15.41,0,0,1,9.14,2.6,8.6,8.6,0,0,1,12.6.41a8.25,8.25,0,0,1,4.1-.26,11.14,11.14,0,0,1,3.77,1.61,38.42,38.42,0,0,1,6,5.43c7.34,8,12,18.2,14.48,28.7a129.54,129.54,0,0,1,2.75,16c.58,5.38.9,10.77,1.12,16.17q.15,4,.23,8.1a32.73,32.73,0,0,1-.47,8.18A11.8,11.8,0,0,1,43,88.19a13.69,13.69,0,0,1-2.88,3,45.59,45.59,0,0,1-7,4.24l.3-.56a75.69,75.69,0,0,1,.42,10.42,87.85,87.85,0,0,1-.69,10.4l-.32-.64a26.59,26.59,0,0,0,12.39,3,54.18,54.18,0,0,0,12.88-1.68c4.25-1,8.48-2.22,12.77-3.27s8.59-2,12.91-2.88c8.65-1.73,17.36-3.1,26.11-4.2s17.52-1.92,26.31-2.57l.1,2-25.15,1.18-12.57.59c-4.19.21-8.38.36-12.57.62l-6.48.4,5.94-2.66a56.25,56.25,0,0,1,7.33-2.82,48.61,48.61,0,0,1,7.73-1.63,47.85,47.85,0,0,1,15.76.59l1.25.26-.26,1.25-.15.73-.26,1.25-1.25-.26A45.06,45.06,0,0,0,90.73,107l-.53-2.54q27.29-1.59,54.62-2.27l13.65-.28,13.65-.43,27.3-.85c9.1-.26,18.19-.57,27.27-1s18.15-.93,27.2-1.68a186.73,186.73,0,0,0,26.81-3.83,77.73,77.73,0,0,0,24.76-10l-.16,2.2-24-21.16a63.1,63.1,0,0,1-10.94-12.08,26.26,26.26,0,0,1-3.48-7.63,19,19,0,0,1-.25-8.49l.18-.91.9-.13a49.22,49.22,0,0,1,22.11,1.76,50.78,50.78,0,0,1,19.21,11,44.61,44.61,0,0,1,7.24,8.5A21.9,21.9,0,0,1,320,68a15.25,15.25,0,0,1-.88,5.77,18.86,18.86,0,0,1-2.79,5A34.21,34.21,0,0,1,308,86.23l.1-1.63,21.74,19.25,1.37,1.21-1.79.39c-12.3,2.69-24.94,3-37.39,2.56-6.24-.22-12.46-.6-18.68-1s-12.43-.7-18.65-1q-37.31-1.77-74.69-1.82-9.34,0-18.68.08c-6.22.13-12.44.46-18.66.79-12.43.7-24.85,1.77-37.19,3.4a323.41,323.41,0,0,0-36.69,6.88c-6,1.49-12,3.3-18.25,4a37.07,37.07,0,0,1-9.34,0,26.73,26.73,0,0,1-8.88-2.85l.13-.07A54,54,0,0,1,30.81,124v0q2,5.54,4.47,10.89l-.06,0a2.69,2.69,0,0,0,2.56-2.7V132h.05l.75,0h.05V132a3.41,3.41,0,0,1-1.15,2.68,3.61,3.61,0,0,1-1.28.77,3.24,3.24,0,0,1-1.48.13h0v0q-2.39-5.13-4.35-10.44h.06A25.34,25.34,0,0,1,27.09,132a8.89,8.89,0,0,1-2.8,2.6,5.41,5.41,0,0,1-3.72.61h0a8.39,8.39,0,0,1-2.31,2.13A6,6,0,0,1,15.28,138.21Zm0,0a6,6,0,0,0,3-.85,8.38,8.38,0,0,0,2.3-2.13h0a5.38,5.38,0,0,0,3.7-.62A8.86,8.86,0,0,0,27.06,132a25.29,25.29,0,0,0,3.28-6.9l0-.08,0,.08q2,5.3,4.37,10.42l0,0a3.27,3.27,0,0,0,2.69-.88,3.3,3.3,0,0,0,1.11-2.6l.06.05-.75,0,.05-.06a2.81,2.81,0,0,1-2.67,2.83h0l0,0q-2.49-5.34-4.5-10.88v0a53.84,53.84,0,0,0,1.64-7.51l0-.12.11.06a26.54,26.54,0,0,0,8.83,2.8,36.86,36.86,0,0,0,9.29,0c6.19-.71,12.17-2.53,18.21-4a323.74,323.74,0,0,1,36.71-7c12.35-1.68,24.78-2.74,37.21-3.54,6.22-.38,12.44-.75,18.67-.93s12.46-.17,18.69-.21q37.38-.2,74.75,1.28c6.23.24,12.45.54,18.67.85s12.44.66,18.65.84c12.41.34,24.88-.06,37-2.79l-.42,1.6-21.88-19.1-1-.88,1.11-.75a32.17,32.17,0,0,0,7.78-7.05A14.33,14.33,0,0,0,317.81,68a19.69,19.69,0,0,0-3.47-9.58,42.33,42.33,0,0,0-6.91-8A48.34,48.34,0,0,0,289.08,40.1a46.68,46.68,0,0,0-21-1.61l1.08-1a16.39,16.39,0,0,0,.23,7.36,23.66,23.66,0,0,0,3.16,6.85,60.62,60.62,0,0,0,10.52,11.51l24,21.08,1.37,1.2-1.53,1a80.51,80.51,0,0,1-25.62,10.43,189.48,189.48,0,0,1-27.21,4c-9.1.79-18.2,1.34-27.31,1.77s-18.22.67-27.32.91l-27.3.78-13.65.39-13.66.24q-27.28.6-54.54,2.11l-8.64.48,8.11-3a47.64,47.64,0,0,1,26.31-2l-1.51,1,.16-.73,1,1.51a46.33,46.33,0,0,0-22.28.86,53.81,53.81,0,0,0-7.07,2.67l-.54-2.26c4.19-.23,8.39-.35,12.59-.54l12.59-.5,25.18-1,.1,2c-8.76.58-17.51,1.35-26.23,2.37s-17.4,2.34-26,4q-6.46,1.25-12.86,2.78c-4.26,1-8.5,2.2-12.81,3.19a55.52,55.52,0,0,1-13.23,1.62,27.9,27.9,0,0,1-13-3.28l-.38-.21.06-.42a86.65,86.65,0,0,0,.76-10.25A74.59,74.59,0,0,0,32.3,95l0-.38.35-.18a44.71,44.71,0,0,0,6.85-4.08,12.67,12.67,0,0,0,2.69-2.79,10.8,10.8,0,0,0,1.52-3.53,31.93,31.93,0,0,0,.5-7.93q0-4-.17-8.08c-.18-5.38-.46-10.76-1-16.12A128.84,128.84,0,0,0,40.36,36C37.93,25.6,33.45,15.46,26.18,7.49a38.08,38.08,0,0,0-5.95-5.38A10.72,10.72,0,0,0,16.61.55a7.84,7.84,0,0,0-3.89.24c-2.55.81-4.38,3-5.68,5.29a27.53,27.53,0,0,0-2.69,7.54A299.05,299.05,0,0,0,.79,45.75Q-.16,61.9.47,78.09T3.41,110.3c.74,5.34,1.66,10.66,2.64,16a22.5,22.5,0,0,0,2.89,7.5,11.7,11.7,0,0,0,2.63,3A6,6,0,0,0,15.28,138.21Z"/><path class="cls-1" d="M15.08.94a7.13,7.13,0,0,0-4.36,1.55,12.13,12.13,0,0,0-3,3.59,27.15,27.15,0,0,0-3,8.89C3.79,21.2,3,27.45,2.48,33.72a307.19,307.19,0,0,0-1,37.69,323.86,323.86,0,0,0,3.46,37.5c.44,3.11,1,6.2,1.53,9.29.26,1.55.59,3.08.88,4.62s.56,3.12,1,4.52a21.51,21.51,0,0,0,1.64,4.13,12,12,0,0,0,2.52,3.4,4,4,0,0,0,3.25,1.22,4.68,4.68,0,0,0,3-1.93l.63,2.17a11.47,11.47,0,0,1-4.65-3.21,20.55,20.55,0,0,1-3-4.4,28.08,28.08,0,0,1-3-10.06,24.19,24.19,0,0,1,.1-5.33,18.33,18.33,0,0,1,1.46-5.22,16.25,16.25,0,0,1,3.06-4.53,23,23,0,0,1,4.14-3.38l-.52,1.92c-.61-1.41-1.25-2.8-1.82-4.22S14,95,13.65,93.54A58.63,58.63,0,0,1,12,84.6a94.31,94.31,0,0,1,.13-18l.26-3,2,2.2c.77.83,1.59,1.73,2.33,2.64S18.29,70.3,19,71.25a52.46,52.46,0,0,1,3.76,6l-2.28.6v-3l1.65.67a15.77,15.77,0,0,1,5,3.13,17.72,17.72,0,0,1,3.48,4.66,32,32,0,0,1,3.12,10.82l-1.36-.71a51.17,51.17,0,0,0,5.78-3.28,10.76,10.76,0,0,0,4.07-4.71,17.77,17.77,0,0,0,1-6.39c0-2.24,0-4.51,0-6.77-.08-4.52-.16-9-.45-13.54-.1-2.26-.33-4.5-.5-6.75l-.37-3.36-.19-1.68-.25-1.67A97.37,97.37,0,0,0,38.65,32a74.35,74.35,0,0,0-4.9-12.61A58.82,58.82,0,0,0,26.09,8.2L23.71,5.79A23.77,23.77,0,0,0,21.22,3.5,10.21,10.21,0,0,0,15.08.94Zm0,0a10.22,10.22,0,0,1,6.16,2.53,23.81,23.81,0,0,1,2.51,2.28l2.4,2.4a59.69,59.69,0,0,1,7.73,11.13A74.58,74.58,0,0,1,39,31.86a107.66,107.66,0,0,1,3,13.25l.29,1.68.23,1.68L43,51.84c.22,2.25.51,4.51.66,6.77.4,4.52.59,9,.77,13.57.06,2.27.16,4.52.19,6.8a19.16,19.16,0,0,1-1,7,12.39,12.39,0,0,1-4.52,5.53A52.65,52.65,0,0,1,33.17,95L32,95.66l-.2-1.34a30.08,30.08,0,0,0-3.14-10.05,15.51,15.51,0,0,0-3.14-4,13.36,13.36,0,0,0-4.32-2.57l1.66-1.12,0,1.25L23,82.53l-2.36-4.11a56.29,56.29,0,0,0-3.7-5.64q-1-1.35-2.11-2.63c-.73-.86-1.48-1.66-2.28-2.5l2.31-.81c-.21,2.94-.36,5.84-.36,8.76a82.61,82.61,0,0,0,.44,8.69,55.73,55.73,0,0,0,1.57,8.48c.38,1.38.82,2.75,1.32,4.08s1.15,2.61,1.71,3.91L20,102l-1,.69a16.13,16.13,0,0,0-6.12,6.65,18.3,18.3,0,0,0-1.35,9,25.23,25.23,0,0,0,2.68,9,18.28,18.28,0,0,0,2.58,3.84,8.8,8.8,0,0,0,3.44,2.51l1.88.67-1.25,1.5a8.94,8.94,0,0,1-2.06,1.86,6.56,6.56,0,0,1-2.77,1,6,6,0,0,1-3-.4,8.11,8.11,0,0,1-2.36-1.53,14.51,14.51,0,0,1-3-4.18A23.55,23.55,0,0,1,5.94,128c-.41-1.65-.6-3.17-.88-4.73s-.55-3.11-.78-4.67c-.46-3.12-.95-6.24-1.32-9.38A325.39,325.39,0,0,1,.38,71.43,343.24,343.24,0,0,1,2.19,33.69c.61-6.27,1.5-12.5,2.44-18.73a27.22,27.22,0,0,1,3-8.9,12.16,12.16,0,0,1,3-3.58A7.15,7.15,0,0,1,15.08.94Z"/><path class="cls-1" d="M21.07,134.56a5,5,0,0,0,3.15-1.45,10.71,10.71,0,0,0,2-2.83A24.15,24.15,0,0,0,27.56,127c.39-1.12.69-2.3,1-3.44l0,.89c-.8-2.19-1.57-4.39-2.28-6.61l2.88-.14a40.55,40.55,0,0,1-3,9,35.52,35.52,0,0,1-2.28,4.14c-.43.66-.86,1.31-1.34,1.94a8.71,8.71,0,0,1-.72.83A11.63,11.63,0,0,0,21.07,134.56Zm0,0c.13-.3.26-.64.39-1s.35-.81.46-1.16c.26-.73.55-1.44.79-2.17.52-1.44,1-2.89,1.43-4.34.85-2.91,1.6-5.82,2.16-8.77l1-5.45L29.19,117c.75,2.16,1.43,4.33,2.09,6.52l.16.53-.14.36c-.46,1.2-.88,2.4-1.45,3.57a20.89,20.89,0,0,1-2,3.36A10,10,0,0,1,24.9,134,4.76,4.76,0,0,1,21.07,134.56Z"/><path class="cls-1" d="M18.54,102.12a17.5,17.5,0,0,0-5.68,7.35,15.36,15.36,0,0,0-1,4.44,21.73,21.73,0,0,0,.12,4.56,24.82,24.82,0,0,0,2.89,8.59,18.41,18.41,0,0,0,2.56,3.62A8.16,8.16,0,0,0,20.69,133l-1.64.57c.4-.66.83-1.29,1.23-2s.77-1.42,1.13-2.14c.71-1.45,1.37-2.93,2-4.43s1.13-3,1.59-4.6.9-3.13,1.24-4.72l0,.49c-.31-1.25-.59-2.51-.86-3.77l.27.45a31.3,31.3,0,0,1-4.12-5A31.94,31.94,0,0,1,18.54,102.12Zm0,0a46.75,46.75,0,0,0,3.85,5,38.76,38.76,0,0,0,4.49,4.32l.17.14.1.31c.41,1.21.81,2.41,1.19,3.62l.07.21,0,.28c-.24,1.68-.54,3.36-.93,5s-.89,3.29-1.45,4.9a43.46,43.46,0,0,1-2,4.74c-.37.77-.76,1.53-1.16,2.29s-.92,1.52-1.38,2.28l-.55.91-1.09-.34a10.5,10.5,0,0,1-4.57-3.15,21,21,0,0,1-2.92-4.26,26.27,26.27,0,0,1-1.84-4.72,21.82,21.82,0,0,1-.88-5,22.38,22.38,0,0,1,.26-5,17.07,17.07,0,0,1,1.58-4.8A16,16,0,0,1,18.54,102.12Z"/><path class="cls-1" d="M28.07,115.8a28.84,28.84,0,0,1,2.06,3.28,30.94,30.94,0,0,1,1.5,3.19l-2.68.09c.44-2.17.9-4.32,1.46-6.5l.64,1.31A14.93,14.93,0,0,1,28,114.36l1-.4C28.71,114.54,28.41,115.15,28.07,115.8Zm0,0a12.34,12.34,0,0,1-.3-2l-.05-.82,1,.43,3.59,1.53.69.29,0,1a24,24,0,0,1-1.3,6.88l-1.56,4.49L29,123.21a33.38,33.38,0,0,1-.74-3.75A18.71,18.71,0,0,1,28.07,115.8Z"/><path class="cls-1" d="M28.47,113c1.2.64,2.4,1.22,3.6,1.75l-.84.41c0-1.66,0-3.31,0-5s-.06-3.29-.09-4.94L31,100.35c-.07-1.62-.18-3.24-.34-4.85l2.14,1.17c-1.32.61-2.65,1.2-4,1.78l.8-1.48c.16,1.35.27,2.7.3,4.06s0,2.71-.07,4.06A35.94,35.94,0,0,1,28.47,113Zm0,0c-.13-2.68-.28-5.31-.54-7.92-.15-1.3-.26-2.6-.47-3.88s-.39-2.57-.63-3.84l-.18-1,1-.51c1.27-.65,2.55-1.28,3.83-1.9l1.88-.9.26,2.07a45.62,45.62,0,0,1,.33,5.11c0,1.71,0,3.36-.14,5.05s-.28,3.36-.49,5a50,50,0,0,1-1,5l-.22.87-.62-.45A20.36,20.36,0,0,1,28.47,113Z"/><path class="cls-1" d="M27.28,113a2.12,2.12,0,0,0,.6.72,1,1,0,0,0,.61.21c.37,0,.52-.22.53-.27l-2.91.19c0-.25.15-.47.51-.68l.4,1a.63.63,0,0,0,.44-.35A.8.8,0,0,0,27.28,113Zm0,0c-.09-.18,0-.38.23-.49a1.2,1.2,0,0,1,.84,0l.4,1a.84.84,0,0,1,.3.82l-1.6,5.79-1.31-5.6a1.74,1.74,0,0,1,.23-1.34.74.74,0,0,1,.46-.32A.46.46,0,0,1,27.28,113Z"/><path class="cls-1" d="M26.94,111.75l1,.53-.4.16c-.18-2.53-.38-5-.61-7.45s-.53-4.87-.89-7.28l2.08,1.16-1.62.74-1.64.71.81-1.54c.28,2.13.55,4.27.78,6.42.09,1.08.23,2.16.3,3.25S26.91,110.64,26.94,111.75Zm0,0a30,30,0,0,1-1.38-3c-.43-1-.76-2.06-1.12-3.1a56.86,56.86,0,0,1-1.63-6.38l-.2-1,1-.49,1.64-.8,1.67-.78,1.79-.84.29,2a38.14,38.14,0,0,1,.35,7.68A32,32,0,0,1,28,112.5l-.15.48-.25-.32C27.38,112.34,27.14,112,26.94,111.75Z"/><path class="cls-1" d="M19.17,101.72l1.94,2.14c.65.69,1.25,1.4,1.91,2.06,1.27,1.35,2.57,2.64,3.92,3.85l-2.42,1.4a52,52,0,0,1-1.31-5.77,43.61,43.61,0,0,1-.6-5.9l1.34.69c-.67.25-1.37.46-2.17.69S20.12,101.38,19.17,101.72Zm0,0c.51-.45,1.09-1,1.75-1.54a27.52,27.52,0,0,1,2.2-1.68l.93-.64.41,1.33c.58,1.87,1.08,3.74,1.55,5.62s.9,3.76,1.32,5.64l1.09,5-3.51-3.61a24,24,0,0,1-3.56-4.71,23.2,23.2,0,0,1-1.29-2.64A16.53,16.53,0,0,1,19.17,101.72Z"/><path class="cls-1" d="M188.5,103.11c11.62-.28,23.23-.28,34.86-.23s23.24.42,34.85.8c5.81.2,11.62.41,17.42.72s11.59.58,17.37.71c11.54.26,23.12-.08,34.34-2.43l-.68,2.58L305.83,86.89l1.76.12c-8.67,5.64-18.56,9-28.5,11s-20.1,2.86-30.15,3.53-20.14,1.08-30.22,1.25S198.58,103.12,188.5,103.11Zm0,0,30.18-1.53c10.05-.59,20.1-1.14,30.11-2a237.66,237.66,0,0,0,29.75-4.07c9.72-2.14,19.2-5.5,27.45-10.88l.93-.6.83.73L328.62,103l2.26,2-2.94.6c-11.57,2.35-23.38,2.72-35,2.31s-23.22-1.33-34.81-2-23.18-1.19-34.79-1.63S200.11,103.47,188.5,103.11Z"/><path class="cls-1" d="M14.11,68.5c.1,2.81.2,5.54.4,8.31s.5,5.48.91,8.17a62.29,62.29,0,0,0,1.78,7.92c.39,1.29.85,2.55,1.31,3.81l1.63,3.66-2.1-.6c1.56-.87,3.14-1.71,4.72-2.53L22,98.81c-.5-3.2-.86-6.42-1.06-9.65-.11-1.61-.19-3.23-.2-4.85s0-3.23,0-4.85l.11.44a63.68,63.68,0,0,0-3.05-5.83C16.64,72.17,15.43,70.31,14.11,68.5Zm0,0a39.91,39.91,0,0,1,4.62,4.9A46.8,46.8,0,0,1,22.57,79l.09.15,0,.28c.12,1.59.22,3.17.38,4.76l.49,4.74c.38,3.15.81,6.29,1.32,9.42l.17,1-1,.55c-1.47.82-3,1.62-4.45,2.39l-1.51.78-.59-1.38c-.57-1.32-1.15-2.64-1.69-4a38.52,38.52,0,0,1-1.26-4.1,47.69,47.69,0,0,1-1.36-8.4,60.6,60.6,0,0,1-.07-8.43A70.46,70.46,0,0,1,14.11,68.5Z"/><path class="cls-1" d="M22.49,81c.35,1.43.61,2.86.89,4.28s.54,2.84.76,4.25c.52,2.83,1,5.64,1.45,8.46l-2.11-1.11c1.1-.52,2.19-1,3.31-1.52L25.94,97q-.29-2-.66-4c-.25-1.32-.5-2.65-.8-4s-.61-2.65-1-4Zm0,0a27.47,27.47,0,0,1,2.27,3.54,35,35,0,0,1,1.79,3.81,40.51,40.51,0,0,1,1.37,4q.57,2,.94,4.12l.2,1.1-1,.49c-1.07.5-2.17,1-3.26,1.51l-1.83.81-.28-1.92a64.83,64.83,0,0,1-.72-8.71c0-1.46,0-2.92.08-4.38A39.84,39.84,0,0,1,22.49,81Z"/><path class="cls-1" d="M22.44,79.26a31.36,31.36,0,0,1,2.49,3.86,41,41,0,0,1,2,4.16c.56,1.43,1.11,2.88,1.53,4.37a44.37,44.37,0,0,1,1.07,4.51l-2-1.09c1.28-.64,2.58-1.26,3.87-1.88l-.82,1.54a37.47,37.47,0,0,0-2.32-9.37,18.65,18.65,0,0,0-2.35-4.14,14.32,14.32,0,0,0-3.57-3.3l.36-.23Zm0,0c-.1-.5-.18-1-.27-1.55l-.06-.35.41.12a12,12,0,0,1,4.57,2.62,16.28,16.28,0,0,1,3.31,4.21,28.17,28.17,0,0,1,3.12,10l.15,1.08-1,.45c-1.33.62-2.65,1.24-4,1.84l-1.77.78-.27-1.87q-.32-2.19-.74-4.36c-.29-1.45-.59-2.91-1-4.34s-.76-2.88-1.17-4.33S22.91,80.72,22.44,79.26Z"/><path class="cls-1" d="M268.55,37.87a17,17,0,0,0,.88,7.66,26.16,26.16,0,0,0,3.67,6.75,67,67,0,0,0,10.86,11c4,3.39,8,6.75,12,10.18s8,6.82,11.89,10.27l-1.77-.12a31.38,31.38,0,0,0,7.52-6.71,13.34,13.34,0,0,0,3.14-8.82,19.09,19.09,0,0,0-3.24-9.17,41.42,41.42,0,0,0-6.58-7.83,49.08,49.08,0,0,0-17.63-10.64A49.65,49.65,0,0,0,268.55,37.87Zm0,0a45.43,45.43,0,0,1,21.2,1A48.65,48.65,0,0,1,308.6,49.23a44,44,0,0,1,7.21,8.2A21.11,21.11,0,0,1,319.63,68a14.74,14.74,0,0,1-.89,5.77,18.32,18.32,0,0,1-2.81,5,34.26,34.26,0,0,1-8.27,7.31l-.94.62L305.9,86c-3.93-3.46-7.82-7-11.71-10.48s-7.76-7-11.63-10.57A62.66,62.66,0,0,1,272,53a25.49,25.49,0,0,1-3.29-7.27A16.51,16.51,0,0,1,268.55,37.87Z"/><path class="cls-1" d="M151.25,87.82l-.18-.73C163,84.18,175,80.92,186.7,77.41q2-.6,3.76-1.28a6.83,6.83,0,0,1,1.42-10.81,12.5,12.5,0,0,1,10.66-1.05l.26.1v.27c-.24,4.86-3.92,8.8-11,11.75a10.33,10.33,0,0,0,7.55,2.24c5-.61,9.23-4.15,12.66-7.09-2.21-2.58-6.33-2.52-10.1-2.1l-.08-.75c4.11-.46,8.63-.49,11,2.67l.21.28-.27.23c-3.56,3.05-8,6.85-13.33,7.51a11.12,11.12,0,0,1-8.42-2.66q-1.91.76-4.14,1.42C175.17,81.65,163.17,84.91,151.25,87.82Zm47.09-23.54A11.35,11.35,0,0,0,192.29,66a6.1,6.1,0,0,0-1.07,9.88c6.81-2.79,10.44-6.46,10.8-11A11.35,11.35,0,0,0,198.34,64.28Z"/><path class="cls-1" d="M151.25,87.82l-.2-.72v0h0c6.55-1.89,13.12-3.73,19.63-5.73l9.77-3,4.87-1.54c.82-.25,1.61-.53,2.39-.82l2.36-.84-.39,1.72a8.16,8.16,0,0,1-2.39-6.27,7.67,7.67,0,0,1,1-3.34,8.72,8.72,0,0,1,2.31-2.56,12.64,12.64,0,0,1,6.14-2.36,13.68,13.68,0,0,1,6.49.77l.89.35,0,1a11.18,11.18,0,0,1-1.15,4.7A13.59,13.59,0,0,1,200.14,73a26.17,26.17,0,0,1-7.74,4.77l.36-2.47a9,9,0,0,0,4.45,1.88,7.62,7.62,0,0,0,2.41-.05,11.94,11.94,0,0,0,2.46-.67,21.31,21.31,0,0,0,4.65-2.56c1.49-1,2.91-2.23,4.35-3.46l-.16,2.08a5.74,5.74,0,0,0-3.8-1.72,22.35,22.35,0,0,0-5,.1l-1.45.16-.15-1.44-.08-.75-.15-1.44,1.43-.15a23.58,23.58,0,0,1,6.47,0,10.16,10.16,0,0,1,3.32,1.13A7.76,7.76,0,0,1,213,69.48a5.69,5.69,0,0,1,.64.67l.29.36.23.31.77,1-1,.82c-1.59,1.34-3.21,2.71-5,4a23.67,23.67,0,0,1-5.79,3.1,15.61,15.61,0,0,1-3.28.79,11.24,11.24,0,0,1-3.46-.07,12.32,12.32,0,0,1-6.11-2.94l1.1.19c-1.67.54-3.35,1.13-5,1.59l-5,1.36c-3.33.9-6.67,1.77-10,2.58C164.72,84.87,158,86.46,151.25,87.82Zm0,0L161.18,85q5-1.44,9.9-2.94L181,79l4.92-1.56c1.63-.53,3.19-1.15,4.78-1.7l.62-.21.48.41a10.13,10.13,0,0,0,5.06,2.25,8.87,8.87,0,0,0,2.76,0,13.18,13.18,0,0,0,2.76-.75,22.33,22.33,0,0,0,5.12-2.89c1.62-1.18,3.16-2.52,4.73-3.89l-.2,1.85-.23-.3-.2-.23a3.19,3.19,0,0,0-.42-.42,5,5,0,0,0-1-.69,7.39,7.39,0,0,0-2.44-.77,22.5,22.5,0,0,0-5.7.07l1.28-1.59.08.75L201.79,68a25.07,25.07,0,0,1,5.69-.12,10.85,10.85,0,0,1,3,.76,7.33,7.33,0,0,1,2.7,1.94l1,1.12-1.12,1c-1.45,1.25-2.93,2.51-4.56,3.66a23,23,0,0,1-5.33,2.9,14.9,14.9,0,0,1-3,.8,10.61,10.61,0,0,1-3.27,0,12,12,0,0,1-5.91-2.55L189,76l2.23-.95a24,24,0,0,0,6.92-4.16,10.79,10.79,0,0,0,2.33-3,8.4,8.4,0,0,0,.93-3.6l.88,1.33a11,11,0,0,0-5.27-.72,10.48,10.48,0,0,0-5,1.76,5.69,5.69,0,0,0-2.51,4.12,5.94,5.94,0,0,0,1.65,4.62l1.1,1.2-1.5.52c-3.32,1.14-6.6,2-9.9,2.89s-6.6,1.75-9.91,2.56c-6.63,1.61-13.27,3.2-20,4.54l0,0Z"/><path class="cls-1" d="M198.34,64.28a9.88,9.88,0,0,0-4.32,1,7.18,7.18,0,0,0-3.11,2.84,5.12,5.12,0,0,0-.49,3.68,6.15,6.15,0,0,0,1.85,3l-1.61-.32c1.19-.53,2.37-1,3.52-1.61A28.64,28.64,0,0,0,197.51,71a11.52,11.52,0,0,0,2.83-2.55,8,8,0,0,0,1.55-3.57L202,65A9.49,9.49,0,0,0,198.34,64.28Zm0,0a14.06,14.06,0,0,1,3.72.47l.09,0v.11a10.71,10.71,0,0,1-.88,4.09,12.65,12.65,0,0,1-2.38,3.6,16.39,16.39,0,0,1-3.32,2.74,22.76,22.76,0,0,1-3.79,1.89l-.93.36-.68-.68A7.27,7.27,0,0,1,188,72.06a6.61,6.61,0,0,1,1.82-4.77,9.34,9.34,0,0,1,4.07-2.36A15.17,15.17,0,0,1,198.34,64.28Z"/><path class="cls-1" d="M72,91.22l-.47-.58a38.76,38.76,0,0,1,30.1-8l-.12.74A38,38,0,0,0,72,91.22Z"/><path class="cls-1" d="M72,91.22l-.54-.53-.05-.05.06-.07a31.19,31.19,0,0,1,6.44-4.94,35.52,35.52,0,0,1,7.53-3.28,37.33,37.33,0,0,1,8.13-1.52,37.92,37.92,0,0,1,8.3.37l1.49.23-.26,1.49-.13.74-.26,1.49-1.46-.26a37.68,37.68,0,0,0-7.51-.49,41.92,41.92,0,0,0-7.53.93A44.52,44.52,0,0,0,72,91.22Zm0,0a30.41,30.41,0,0,1,6.28-4.87,34.7,34.7,0,0,1,7.36-3.23,35.55,35.55,0,0,1,16.11-1.17l-1.71,1.23.11-.74,1.24,1.72a36.85,36.85,0,0,0-7.67-.47,41.49,41.49,0,0,0-7.67,1A44,44,0,0,0,78.62,87a46.5,46.5,0,0,0-7,3.68v-.12C71.73,90.78,71.86,91,72,91.22Z"/></g></g></svg>