<svg xmlns="http://www.w3.org/2000/svg" viewBox="0 0 32 32"><defs><style>.cls-1{fill:none;}.cls-2{fill:#655142;}.cls-3{fill:#fff;}</style></defs><title>Asset 27667</title><g id="Layer_2" data-name="Layer 2"><g id="Layer_1-2" data-name="Layer 1"><path class="cls-1" d="M27.09,23a30.42,30.42,0,0,0-3.52,0,28.88,28.88,0,0,0-3.86.58l-1,.24-1,.26c-.71.15-1.44.29-2.17.38a35.78,35.78,0,0,1-4.46.27,33.74,33.74,0,0,1-4.46-.31l-1-.17.84.21c.65.13,1.3.25,2,.33a34.48,34.48,0,0,0,4.13.26,33.15,33.15,0,0,0,4.13-.21c.68-.08,1.34-.17,2-.3l1-.22,1-.2A24.18,24.18,0,0,1,28,24c1.59.18,2.95.47,4,.7V23.48C30.74,23.35,29.07,23.14,27.09,23Z"/><path class="cls-1" d="M2.45,23.48l-.11,0A15.88,15.88,0,0,0,0,22.79v.45l.6,0A15.59,15.59,0,0,1,2.45,23.48Z"/><path class="cls-1" d="M2.8,18.37l1.72-.55a.53.53,0,0,0,.22-.18c.24-.3.49-.53.87-.32l.6-.55c-.14-.12-.25-.21-.36-.31s-.19-.31,0-.45A.47.47,0,0,1,6.17,16a1.85,1.85,0,0,1,.41.19,1.52,1.52,0,0,0,.34-.89.86.86,0,0,1,.68-.73.85.85,0,0,1,.26,0c.38,0,.55-.19.7-.48s.41-.63.55-1a3.5,3.5,0,0,0,.23-1c.08-.94.61-1.13,1.29-1.24.18,0,.37-.05.54-.1.36-.09,1.37.16,1.56.7a1.66,1.66,0,0,1,0,1.09.39.39,0,0,0,0,.28l.18.38-.45.13c0,.11-.28.25,0,.5.09.09,0,.24-.18.28a1.09,1.09,0,0,0-.85,1.39,4.54,4.54,0,0,0,1.06,1.7c.19.21.33.16.38-.11s.05-.44.09-.66.08-.19.1-.19.24.06.26.12c.09.27.15.55.22.83a.82.82,0,0,1,0,.16c.44-.1.49-.16.47-.61,0-.18-.07-.37-.09-.55s.09-.32.28-.19a1.4,1.4,0,0,1,.39.43c.13.2.05.52.34.66a.51.51,0,0,1-.07.34c-.23.29-.22.46.08.64a.44.44,0,0,1,0,.65,1.75,1.75,0,0,1-1.71.62c-.25,0-.51,0-.76,0l-.79-.09a1.11,1.11,0,0,0-1.31.66c-.19.5-.45,1-.68,1.47h0l.7,0a34.62,34.62,0,0,0,4.32-.22c.71-.08,1.4-.19,2.08-.32l1-.23.75-.16a.73.73,0,0,1,0-.5c.11-.36.23-.71.34-1.07a1.09,1.09,0,0,1,.4-.52l.25-.19c.21-.17.23-.35,0-.53a2.39,2.39,0,0,1-.58-.84.89.89,0,0,1,.31-1.12.44.44,0,0,1,.69.13,3.54,3.54,0,0,1,.22.42c.05.11.09.24.15.35a.21.21,0,0,0,.15.1,1.72,1.72,0,0,0,.91-.24,1.16,1.16,0,0,1,.94-.14.58.58,0,0,0,.28,0,1.22,1.22,0,0,1,.79,0,3,3,0,0,0,1.1.34.9.9,0,0,0,.27,0,.43.43,0,0,0,.23-.16,3.79,3.79,0,0,0,.26-.57.45.45,0,0,1,.72-.22.85.85,0,0,1,.26,1.18q-.21.31-.44.61a.25.25,0,0,0,0,.33,8.18,8.18,0,0,0,.55.69.92.92,0,0,1,.23.65c0,.18,0,.37,0,.55s0,.23,0,.34v.05l1.16.15,0-.15a.4.4,0,0,1,.15-.19l.09-.07c.08-.06.08-.13,0-.2a.88.88,0,0,1-.21-.31.33.33,0,0,1,.12-.41.16.16,0,0,1,.25,0,1.29,1.29,0,0,1,.08.15s0,.09.06.13a.08.08,0,0,0,.06,0,.63.63,0,0,0,.33-.09.43.43,0,0,1,.35-.05h.1a.45.45,0,0,1,.29,0,1.09,1.09,0,0,0,.4.13h.1a.16.16,0,0,0,.09-.06,1.38,1.38,0,0,0,.1-.21.17.17,0,0,1,.27-.08.31.31,0,0,1,.1.43l-.16.23a.09.09,0,0,0,0,.12,3,3,0,0,0,.2.25.34.34,0,0,1,.08.24c0,.07,0,.14,0,.2s0,.08,0,.13,0,0,0,.06,0,.08,0,.11l0,0s0,0,0,0l1,.2L32,21V0H0V19.28A5.58,5.58,0,0,1,.88,19,19.49,19.49,0,0,0,2.8,18.37Z"/><path class="cls-1" d="M27.9,24.81a29.48,29.48,0,0,0-3.37.05,27.88,27.88,0,0,0-3.69.56l-1,.23-1,.25c-.69.15-1.39.29-2.1.37a34.53,34.53,0,0,1-4.31.26,32.15,32.15,0,0,1-4.3-.3,20.55,20.55,0,0,1-2.1-.39c-.34-.09-.71-.19-1-.3l-1-.34a15.68,15.68,0,0,0-3.57-.86L0,24.3V32H32V25.13C30.88,25,29.48,24.87,27.9,24.81Z"/><path class="cls-1" d="M29.88,21l-.19,0a3,3,0,0,1-.39,0c-.22,0-.44,0-.66-.08a3.9,3.9,0,0,1-.44-.11c-.55,0-1.12-.08-1.73-.11h-.4c-.9.16-1.28.52-2.2.65-.31-.29-.7,0-1.06,0-.59-.07-1.21-.09-1.8-.21l-.41-.09c-.49.08-1,.17-1.49.27l-1,.24-1,.26c-.71.15-1.44.29-2.17.38a35.77,35.77,0,0,1-4.46.27c-.48,0-1,0-1.43-.05l0,.07a.9.9,0,0,0-.08.3c0,.24-.08.48-.12.72.76,0,1.53.08,2.29.08a34.61,34.61,0,0,0,4.32-.22c.71-.08,1.4-.19,2.08-.32l1-.23,1-.21a25.2,25.2,0,0,1,7.65-.28c1.11.11,2.12.29,3,.47l1.86.36v-2l-.22,0Z"/><path class="cls-2" d="M4.06,25.21l1,.34c.32.11.69.2,1,.3a20.55,20.55,0,0,0,2.1.39,32.15,32.15,0,0,0,4.3.3,34.53,34.53,0,0,0,4.31-.26c.71-.08,1.41-.22,2.1-.37l1-.25,1-.23a27.88,27.88,0,0,1,3.69-.56,29.48,29.48,0,0,1,3.37-.05c1.59.07,3,.21,4.1.33v-.47c-1.09-.23-2.45-.52-4-.7a24.18,24.18,0,0,0-7.39.25l-1,.2-1,.22c-.65.12-1.32.22-2,.3a33.15,33.15,0,0,1-4.13.21,34.48,34.48,0,0,1-4.13-.26c-.68-.08-1.33-.21-2-.33l-.84-.21Q5,24.23,4.4,24.1c-.36-.1-.73-.19-1.07-.3l-.89-.31A15.59,15.59,0,0,0,.6,23.25l-.6,0V24.3l.49,0A15.68,15.68,0,0,1,4.06,25.21Z"/><path class="cls-2" d="M22.91,19.91a25.71,25.71,0,0,1,3.61.16l.15,0V20c0-.11,0-.23,0-.34s0-.37,0-.55a.92.92,0,0,0-.23-.65,8.18,8.18,0,0,1-.55-.69.25.25,0,0,1,0-.33q.23-.3.44-.61a.85.85,0,0,0-.26-1.18.45.45,0,0,0-.72.22,3.79,3.79,0,0,1-.26.57.43.43,0,0,1-.23.16.9.9,0,0,1-.27,0,3,3,0,0,1-1.1-.34,1.22,1.22,0,0,0-.79,0,.58.58,0,0,1-.28,0,1.16,1.16,0,0,0-.94.14,1.72,1.72,0,0,1-.91.24.21.21,0,0,1-.15-.1c-.06-.11-.1-.23-.15-.35a3.54,3.54,0,0,0-.22-.42.44.44,0,0,0-.69-.13A.89.89,0,0,0,19,16.76a2.39,2.39,0,0,0,.58.84c.2.18.18.37,0,.53l-.25.19a1.09,1.09,0,0,0-.4.52c-.11.36-.22.71-.34,1.07a.73.73,0,0,0,0,.5l.27-.06A25.57,25.57,0,0,1,22.91,19.91Zm.6-1.56.12-.1.1,0,.09,0h.06l0,.06v.18l-.11.09-.05,0h-.08l-.12,0-.05-.09Zm-1.8-.11.1-.09.12,0H22l.14.11v.21l0,.05-.08,0h-.22l-.09-.1,0-.1Z"/><path class="cls-2" d="M22.8,21.39c.37,0,.76-.29,1.06,0,.92-.12,1.29-.49,2.2-.65a29.61,29.61,0,0,0-3.11.05c-.77.06-1.56.17-2.36.3l.41.09C21.6,21.3,22.21,21.32,22.8,21.39Z"/><path class="cls-2" d="M29.3,21a3,3,0,0,0,.39,0l.19,0-1.68-.16a3.9,3.9,0,0,0,.44.11C28.86,21,29.09,21,29.3,21Z"/><path class="cls-2" d="M29.52,20.54l1.25.24s0,0,0,0l0,0s-.05-.07,0-.11,0,0,0-.06,0-.08,0-.13,0-.14,0-.2a.34.34,0,0,0-.08-.24,3,3,0,0,1-.2-.25.09.09,0,0,1,0-.12l.16-.23a.31.31,0,0,0-.1-.43.17.17,0,0,0-.27.08,1.38,1.38,0,0,1-.1.21.16.16,0,0,1-.09.06H30a1.09,1.09,0,0,1-.4-.13.45.45,0,0,0-.29,0h-.1a.43.43,0,0,0-.35.05.63.63,0,0,1-.33.09.08.08,0,0,1-.06,0s0-.09-.06-.13a1.29,1.29,0,0,0-.08-.15.16.16,0,0,0-.25,0,.33.33,0,0,0-.12.41.88.88,0,0,0,.21.31c.07.07.07.13,0,.2l-.09.07a.4.4,0,0,0-.15.19l0,.15C28.43,20.34,29,20.44,29.52,20.54Z"/><path class="cls-2" d="M2.45,23.48l.89.31c.33.11.71.21,1.07.3s.74.17,1.12.24l1,.17a33.74,33.74,0,0,0,4.46.31,35.78,35.78,0,0,0,4.46-.27c.73-.09,1.46-.23,2.17-.38l1-.26,1-.24a28.88,28.88,0,0,1,3.86-.58,30.42,30.42,0,0,1,3.52,0c2,.09,3.65.3,4.91.43v-.27l-1.86-.36c-.88-.17-1.89-.35-3-.47a25.2,25.2,0,0,0-7.65.28l-1,.21-1,.23c-.68.13-1.38.23-2.08.32a34.61,34.61,0,0,1-4.32.22c-.77,0-1.53,0-2.29-.08l0,.13c0,.07,0,.14-.06.21a17.16,17.16,0,0,1-4.32-.83A13.74,13.74,0,0,0,0,22.21v.58a15.88,15.88,0,0,1,2.34.66Z"/><path class="cls-2" d="M30.77,20.79l-1.25-.24c-.52-.1-1.09-.2-1.69-.29l-1.16-.15-.15,0a25.2,25.2,0,0,0-7.65.28l-.27.06-.75.16-1,.23c-.68.13-1.38.23-2.08.32a34.62,34.62,0,0,1-4.32.22l-.7,0a.38.38,0,0,1-.09.14,2.81,2.81,0,0,0-.64,1c.48,0,1,.05,1.43.05a35.77,35.77,0,0,0,4.46-.27c.73-.09,1.46-.23,2.17-.38l1-.26,1-.24c.5-.11,1-.19,1.49-.27.8-.13,1.59-.24,2.36-.3a29.61,29.61,0,0,1,3.11-.05h.4c.61,0,1.18.07,1.73.11l1.68.16,1.9.2.22,0V21l-.19,0Z"/><path class="cls-2" d="M8.67,23.9c0-.07,0-.14.06-.21l0-.13c0-.24.08-.48.12-.72a.9.9,0,0,1,.08-.3l0-.07a2.81,2.81,0,0,1,.64-1,.38.38,0,0,0,.09-.14h0c.23-.49.49-1,.68-1.47a1.11,1.11,0,0,1,1.31-.66l.79.09c.25,0,.51,0,.76,0A1.75,1.75,0,0,0,15,18.68a.44.44,0,0,0,0-.65c-.3-.18-.31-.35-.08-.64a.51.51,0,0,0,.07-.34c-.29-.14-.21-.46-.34-.66A1.4,1.4,0,0,0,14.2,16c-.2-.12-.3,0-.28.19s.08.37.09.55c0,.45,0,.51-.47.61a.82.82,0,0,0,0-.16c-.07-.28-.12-.56-.22-.83,0-.07-.17-.1-.26-.12s-.08.12-.1.19,0,.44-.09.66-.19.31-.38.11a4.54,4.54,0,0,1-1.06-1.7,1.09,1.09,0,0,1,.85-1.39c.16,0,.27-.19.18-.28-.25-.25,0-.39,0-.5l.45-.13-.18-.38a.39.39,0,0,1,0-.28,1.66,1.66,0,0,0,0-1.09c-.19-.54-1.2-.79-1.56-.7-.18,0-.36.07-.54.1-.69.1-1.21.29-1.29,1.24a3.5,3.5,0,0,1-.23,1c-.14.34-.37.64-.55,1s-.32.52-.7.48a.85.85,0,0,0-.26,0,.86.86,0,0,0-.68.73,1.52,1.52,0,0,1-.34.89A1.85,1.85,0,0,0,6.17,16,.47.47,0,0,0,5.8,16c-.15.14-.09.31,0,.45s.22.19.36.31l-.6.55c-.38-.21-.64,0-.87.32a.53.53,0,0,1-.22.18l-1.72.55A19.49,19.49,0,0,1,.88,19a5.58,5.58,0,0,0-.88.28v2.92a13.74,13.74,0,0,1,4.35.86A17.16,17.16,0,0,0,8.67,23.9Z"/><polygon class="cls-3" points="21.82 18.52 21.9 18.54 22.04 18.54 22.13 18.5 22.16 18.45 22.17 18.33 22.17 18.24 22.02 18.13 21.92 18.11 21.8 18.16 21.7 18.24 21.7 18.32 21.73 18.43 21.82 18.52"/><polygon class="cls-3" points="23.68 18.61 23.75 18.61 23.81 18.59 23.91 18.51 23.92 18.41 23.91 18.32 23.87 18.26 23.81 18.25 23.73 18.24 23.62 18.25 23.5 18.35 23.5 18.47 23.56 18.57 23.68 18.61"/></g></g></svg>