<svg xmlns="http://www.w3.org/2000/svg" viewBox="0 0 576 512"><path d="M166.4 280.5c0 13.2-10.7 24-24 24s-24-10.7-24-24 10.7-24 24-24 24 10.8 24 24zm265-23.9c-13.2 0-24 10.7-24 24 0 13.2 10.7 24 24 24 13.2 0 24-10.7 24-24-.1-13.3-10.8-24-24-24zm89.4 139.5c-62.7 49.1-153.3 38.1-202.4-24.6l-31 46.3-30.7-45.9c-48.3 60.4-135.6 71.9-197.9 26.1C-5.3 350.8-19 260.7 28.2 196.6c-6-20.6-15.6-39.9-28.2-57.2l90.3-.1c59.1-36.7 127.5-55.5 197.1-54 67.9-1.2 134.6 17.3 192.2 53.3l96.2.1c-12.7 17.4-22.3 36.9-28.4 57.6 46.8 62.9 35 151.5-26.6 199.8zM259.4 281.8c0-63.6-51.5-115.1-115.1-115.1S29.2 218.2 29.2 281.8c0 63.6 51.5 115.1 115.1 115.1 63.5-.1 115-51.6 115.1-115.1zm28.6-10.5c5.4-73.4 65.5-130.9 139.1-133-44.1-19.1-91.7-28.5-139.7-27.8-48.1-.5-95.8 8.8-140.2 27.3 74.3 1.5 135.3 59.3 140.8 133.5zm251.7-28.8c-22-59.6-88.2-90.1-147.8-68.2-59.6 22-90.1 88.2-68.2 147.8 22 59.6 88.2 90.1 147.8 68.1 59.7-21.9 90.2-88 68.2-147.7zm-326.1 38v.1c-.1 39.3-32 71.2-71.3 71.1s-71.2-32-71.1-71.3 32-71.2 71.3-71.1c39.3.1 71.1 32 71.1 71.2zm-24.5 0c-.1-25.9-21-46.7-46.8-46.7-25.8.1-46.6 21-46.6 46.8.1 25.8 21 46.6 46.8 46.6 25.7-.1 46.6-21 46.6-46.7zm313.4 0c0 39.4-31.9 71.2-71.2 71.2s-71.2-31.9-71.2-71.2c0-39.3 31.9-71.2 71.2-71.2 39.4.1 71.2 31.9 71.2 71.2zm-24.5 0c0-25.8-20.9-46.7-46.7-46.7s-46.7 20.9-46.7 46.7c0 25.8 20.9 46.7 46.7 46.7 25.8 0 46.7-20.9 46.7-46.7z" fill="#e8e7e2"/></svg>