<svg xmlns="http://www.w3.org/2000/svg" viewBox="0 0 640 568.3"><path d="M204.8 286.7c-10.6-14.1-30.7-17-44.8-6.4s-17 30.7-6.4 44.8l38.1 50.8c4.8 6.4 4.1 15.3-1.5 20.9l-12.8 12.8c-6.7 6.7-17.6 6.2-23.6-1.1L64 300.7V152.3c0-17.7-14.3-32-32-32s-32 14.3-32 32v218.4c0 10.9 3.7 21.5 10.5 30L114.6 535c5 6.5 8.4 13.9 10.4 21.7 1.8 6.9 8.1 11.6 15.3 11.6H272c8.8 0 16-7.2 16-16v-112c0-27.7-9-54.6-25.6-76.8l-57.6-76.8zM608 120.3c-17.7 0-32 14.3-32 32v148.4l-89.8 107.8c-6 7.2-17 7.7-23.6 1.1l-12.8-12.8c-5.6-5.6-6.3-14.5-1.5-20.9l38.1-50.8c10.6-14.1 7.7-34.2-6.4-44.8-14.1-10.6-34.2-7.7-44.8 6.4l-57.6 76.8C361 385.7 352 412.6 352 440.3v112c0 8.8 7.2 16 16 16h131.7c7.1 0 13.5-4.7 15.3-11.6 2-7.8 5.4-15.2 10.4-21.7l104.1-134.3c6.8-8.5 10.5-19.1 10.5-30V152.3c0-17.7-14.3-32-32-32zm-183.8 44.6c-24.8 61.5-84.2 24.3-84.2 24.3-18.2 36.8-48.3 60.5-83.1 60.6-7.2 0-7.5-11 0-11 29-.1 54.2-19.2 70.7-49.5-18.5 7.2-53.4 12.6-72.7-37 49-20.2 71.6 5 80.2 20.5 4.5-11 7.7-22.9 9.7-35.9 0 0-62.9 9.9-67.3-44.1 53.6-21.6 68.7 34.5 68.7 34.5.7-7.5 1.5-23.7 1.5-24 0 0-47.8-33.2-17.1-74.3 56.1 19.3 27.6 73.1 27.6 73.1.2.7.2 10.7 0 15 0 0 20.3-40.1 61.4-25.9-1.9 60.3-63.9 47.9-63.9 47.9-2 12.3-5 24-9 34.9.1-.1 37.5-41.4 77.5-9.1z" fill="#d3cb9b"/></svg>