<svg xmlns="http://www.w3.org/2000/svg" viewBox="0 0 32 32"><defs><style>.cls-1{fill:none}.cls-2{fill:#655142}</style></defs><g id="Layer_2" data-name="Layer 2"><g id="Layer_1-2" data-name="Layer 1"><path class="cls-1" d="M27.09 23a30.42 30.42 0 00-3.52 0 28.88 28.88 0 00-3.86.58l-1 .24-1 .26c-.71.15-1.44.29-2.17.38a35.78 35.78 0 01-4.46.27 33.74 33.74 0 01-4.46-.31l-1-.17.84.21c.65.13 1.3.25 2 .33a34.48 34.48 0 004.13.26 33.15 33.15 0 004.13-.21c.68-.08 1.34-.17 2-.3l1-.22 1-.2A24.18 24.18 0 0128 24c1.59.18 2.95.47 4 .7v-1.22c-1.26-.13-2.93-.34-4.91-.48zm-24.64.48h-.11A15.88 15.88 0 000 22.79v.45h.6a15.59 15.59 0 011.85.24zm.35-5.11l1.72-.55a.53.53 0 00.22-.18c.24-.3.49-.53.87-.32l.6-.55c-.14-.12-.25-.21-.36-.31s-.19-.31 0-.45a.47.47 0 01.32-.01 1.85 1.85 0 01.41.19 1.52 1.52 0 00.34-.89.86.86 0 01.68-.73.85.85 0 01.26 0c.38 0 .55-.19.7-.48s.41-.63.55-1a3.5 3.5 0 00.23-1c.08-.94.61-1.13 1.29-1.24.18 0 .37-.05.54-.1.36-.09 1.37.16 1.56.7a1.66 1.66 0 010 1.09.39.39 0 000 .28l.18.38-.45.13c0 .11-.28.25 0 .5.09.09 0 .24-.18.28a1.09 1.09 0 00-.85 1.39 4.54 4.54 0 001.06 1.7c.19.21.33.16.38-.11s.05-.44.09-.66.08-.19.1-.19.24.06.26.12c.09.27.15.55.22.83a.82.82 0 010 .16c.44-.1.49-.16.47-.61 0-.18-.07-.37-.09-.55s.09-.32.28-.19a1.4 1.4 0 01.39.43c.13.2.05.52.34.66a.51.51 0 01-.07.34c-.23.29-.22.46.08.64a.44.44 0 010 .65 1.75 1.75 0 01-1.71.62h-.76l-.79-.09a1.11 1.11 0 00-1.31.66c-.19.5-.45 1-.68 1.47h.7a34.62 34.62 0 004.32-.22c.71-.08 1.4-.19 2.08-.32l1-.23.75-.16a.73.73 0 010-.5c.11-.36.23-.71.34-1.07a1.09 1.09 0 01.4-.52l.25-.19c.21-.17.23-.35 0-.53a2.39 2.39 0 01-.58-.84.89.89 0 01.31-1.12.44.44 0 01.69.13 3.54 3.54 0 01.22.42c.05.11.09.24.15.35a.21.21 0 00.15.1 1.72 1.72 0 00.91-.24 1.16 1.16 0 01.94-.14.58.58 0 00.28 0 1.22 1.22 0 01.79 0 3 3 0 001.1.34.9.9 0 00.27 0 .43.43 0 00.23-.16 3.79 3.79 0 00.26-.57.45.45 0 01.72-.22.85.85 0 01.26 1.18q-.21.31-.44.61a.25.25 0 000 .33 8.18 8.18 0 00.55.69.92.92 0 01.23.65v.94l1.16.15v-.15a.4.4 0 01.15-.19l.09-.07c.08-.06.08-.13 0-.2a.88.88 0 01-.21-.31.33.33 0 01.12-.41.16.16 0 01.25 0 1.29 1.29 0 01.08.15s0 .09.06.13a.08.08 0 00.06 0 .63.63 0 00.33-.09.43.43 0 01.35-.05h.1a.45.45 0 01.29 0 1.09 1.09 0 00.4.13h.1a.16.16 0 00.09-.06 1.38 1.38 0 00.1-.21.17.17 0 01.27-.08.31.31 0 01.1.43l-.16.23a.09.09 0 000 .12 3 3 0 00.2.25.34.34 0 01.08.24v.5l1 .2.42.2V0H0v19.28A5.58 5.58 0 01.88 19a19.49 19.49 0 001.92-.63z"/><path class="cls-1" d="M27.9 24.81a29.48 29.48 0 00-3.37.05 27.88 27.88 0 00-3.69.56l-1 .23-1 .25c-.69.15-1.39.29-2.1.37a34.53 34.53 0 01-4.31.26 32.15 32.15 0 01-4.3-.3 20.55 20.55 0 01-2.1-.39c-.34-.09-.71-.19-1-.3l-1-.34a15.68 15.68 0 00-3.57-.86L0 24.3V32h32v-6.87a53.05 53.05 0 00-4.1-.32zM29.88 21h-.19a3 3 0 01-.39 0c-.22 0-.44 0-.66-.08a3.9 3.9 0 01-.44-.11c-.55 0-1.12-.08-1.73-.11h-.4c-.9.16-1.28.52-2.2.65-.31-.29-.7 0-1.06 0-.59-.07-1.21-.09-1.8-.21l-.41-.09c-.49.08-1 .17-1.49.27l-1 .24-1 .26c-.71.15-1.44.29-2.17.38a35.77 35.77 0 01-4.46.27c-.48 0-1 0-1.43-.05v.07a.9.9 0 00-.08.3c0 .24-.08.48-.12.72.76 0 1.53.08 2.29.08a34.61 34.61 0 004.32-.22c.71-.08 1.4-.19 2.08-.32l1-.23 1-.21a25.2 25.2 0 017.65-.28c1.11.11 2.12.29 3 .47l1.86.36v-2h-.22z"/><path class="cls-2" d="M4.06 25.21l1 .34c.32.11.69.2 1 .3a20.55 20.55 0 002.1.39 32.15 32.15 0 004.3.3 34.53 34.53 0 004.31-.26c.71-.08 1.41-.22 2.1-.37l1-.25 1-.23a27.88 27.88 0 013.69-.56 29.48 29.48 0 013.37-.05c1.59.07 3 .21 4.1.33v-.47c-1.09-.23-2.45-.52-4-.7a24.18 24.18 0 00-7.39.25l-1 .2-1 .22c-.65.12-1.32.22-2 .3a33.15 33.15 0 01-4.13.21 34.48 34.48 0 01-4.13-.26c-.68-.08-1.33-.21-2-.33l-.84-.21Q5 24.23 4.4 24.1c-.36-.1-.73-.19-1.07-.3l-.89-.31a15.59 15.59 0 00-1.84-.24H0v1.05h.49a15.68 15.68 0 013.57.91zm18.85-5.3a25.71 25.71 0 013.61.16h.15v-.96a.92.92 0 00-.23-.65 8.18 8.18 0 01-.55-.69.25.25 0 010-.33q.23-.3.44-.61a.85.85 0 00-.26-1.18.45.45 0 00-.72.22 3.79 3.79 0 01-.26.57.43.43 0 01-.23.16.9.9 0 01-.27 0 3 3 0 01-1.1-.34 1.22 1.22 0 00-.79 0 .58.58 0 01-.28 0 1.16 1.16 0 00-.94.14 1.72 1.72 0 01-.91.24.21.21 0 01-.15-.1c-.06-.11-.1-.23-.15-.35a3.54 3.54 0 00-.22-.42.44.44 0 00-.69-.13.89.89 0 00-.36 1.12 2.39 2.39 0 00.58.84c.2.18.18.37 0 .53l-.25.19a1.09 1.09 0 00-.4.52c-.11.36-.22.71-.34 1.07a.73.73 0 000 .5l.27-.06a25.57 25.57 0 014.05-.44zm.6-1.56l.12-.1h.25v.24l-.11.09h-.25l-.05-.09zm-1.8-.11l.1-.09H22l.14.11v.26h-.3l-.09-.1v-.1zm1.09 3.15c.37 0 .76-.29 1.06 0 .92-.12 1.29-.49 2.2-.65a29.61 29.61 0 00-3.11.05c-.77.06-1.56.17-2.36.3l.41.09c.6.12 1.21.14 1.8.21zm6.5-.39a3 3 0 00.39 0h.19l-1.68-.16a3.9 3.9 0 00.44.11c.22.05.45.05.66.05zm.22-.46l1.25.24s-.05-.07 0-.11 0 0 0-.06v-.33a.34.34 0 00-.08-.24 3 3 0 01-.2-.25.09.09 0 010-.12l.16-.23a.31.31 0 00-.1-.43.17.17 0 00-.27.08 1.38 1.38 0 01-.1.21.16.16 0 01-.09.06H30a1.09 1.09 0 01-.4-.13.45.45 0 00-.29 0h-.1a.43.43 0 00-.35.05.63.63 0 01-.33.09.08.08 0 01-.06 0s0-.09-.06-.13a1.29 1.29 0 00-.08-.15.16.16 0 00-.25 0 .33.33 0 00-.12.41.88.88 0 00.21.31c.07.07.07.13 0 .2l-.09.07a.4.4 0 00-.15.19v.15c.5-.08 1.07.02 1.59.12z"/><path class="cls-2" d="M2.45 23.48l.89.31a18.42 18.42 0 002.19.54l1 .17a33.74 33.74 0 004.46.31 35.78 35.78 0 004.46-.27c.73-.09 1.46-.23 2.17-.38l1-.26 1-.24a28.88 28.88 0 013.86-.58 30.42 30.42 0 013.52 0c2 .09 3.65.3 4.91.43v-.27l-1.86-.36c-.88-.17-1.89-.35-3-.47a25.2 25.2 0 00-7.65.28l-1 .21-1 .23c-.68.13-1.38.23-2.08.32a34.61 34.61 0 01-4.32.22c-.77 0-1.53 0-2.29-.08v.13c0 .07 0 .14-.06.21a17.16 17.16 0 01-4.32-.83A13.74 13.74 0 000 22.21v.58a15.88 15.88 0 012.34.66z"/><path class="cls-2" d="M30.77 20.79l-1.25-.24c-.52-.1-1.09-.2-1.69-.29l-1.16-.15h-.15a25.2 25.2 0 00-7.65.28l-.27.06-.75.16-1 .23c-.68.13-1.38.23-2.08.32a34.62 34.62 0 01-4.32.22h-.7a.38.38 0 01-.09.14 2.81 2.81 0 00-.64 1c.48 0 1 .05 1.43.05a35.77 35.77 0 004.46-.27c.73-.09 1.46-.23 2.17-.38l1-.26 1-.24c.5-.11 1-.19 1.49-.27.8-.13 1.59-.24 2.36-.3a29.61 29.61 0 013.11-.05h.4c.61 0 1.18.07 1.73.11l1.68.16 1.9.2h.22V21h-.19z"/><path class="cls-2" d="M8.67 23.9c0-.07 0-.14.06-.21v-.13c0-.24.08-.48.12-.72a.9.9 0 01.08-.3v-.07a2.81 2.81 0 01.64-1 .38.38 0 00.09-.14c.23-.49.49-1 .68-1.47a1.11 1.11 0 011.31-.66l.79.09h.76a1.75 1.75 0 001.8-.61.44.44 0 000-.65c-.3-.18-.31-.35-.08-.64a.51.51 0 00.07-.34c-.29-.14-.21-.46-.34-.66a1.4 1.4 0 00-.45-.39c-.2-.12-.3 0-.28.19s.08.37.09.55c0 .45 0 .51-.47.61a.82.82 0 000-.16c-.07-.28-.12-.56-.22-.83 0-.07-.17-.1-.26-.12s-.08.12-.1.19 0 .44-.09.66-.19.31-.38.11a4.54 4.54 0 01-1.06-1.7 1.09 1.09 0 01.85-1.39c.16 0 .27-.19.18-.28-.25-.25 0-.39 0-.5l.45-.13-.18-.38a.39.39 0 010-.28 1.66 1.66 0 000-1.09c-.19-.54-1.2-.79-1.56-.7-.18 0-.36.07-.54.1-.69.1-1.21.29-1.29 1.24a3.5 3.5 0 01-.23 1c-.14.34-.37.64-.55 1s-.32.52-.7.48a.85.85 0 00-.26 0 .86.86 0 00-.68.73 1.52 1.52 0 01-.34.89 1.85 1.85 0 00-.41-.19.47.47 0 00-.37 0c-.15.14-.09.31 0 .45s.22.19.36.31l-.6.55c-.38-.21-.64 0-.87.32a.53.53 0 01-.22.18l-1.72.55A19.49 19.49 0 01.88 19a5.58 5.58 0 00-.88.28v2.92a13.74 13.74 0 014.35.86 17.16 17.16 0 004.32.84z"/><path d="M21.82 18.52l.08.02h.14l.09-.04.03-.05.01-.12v-.09l-.15-.11-.1-.02-.12.05-.1.08v.08l.03.11.09.09zm1.86.09h.07l.06-.02.1-.08.01-.1-.01-.09-.04-.06-.06-.01-.08-.01-.11.01-.12.1v.12l.06.1.12.04z" fill="#fff"/></g></g></svg>