<svg viewBox="0 0 744.24 340.56" xmlns="http://www.w3.org/2000/svg"><defs><clipPath id="a" transform="translate(0 -19.03)"><path d="M508.08 156.53c-34.43-2.69-76.93-17.22-137.72-2.15-39.81 10.76-103.23 9.21-135.57-2.69-49.69-19.65-116.2-3.77-130.73 2.15L253.5 15.28 455.4 0z" data-name="&lt;Clipping Path&gt;" fill="none"/></clipPath><style>.cls-2{fill:#493a30}.cls-4{fill:#fff}</style></defs><g data-name="Layer 2"><g data-name="Layer 1"><g data-name="&lt;Group&gt;"><path class="cls-2" d="M82.72 152.55s1.7-.83 5-2.18a144.54 144.54 0 0114.74-5 285 285 0 0154.65-10.4 232.72 232.72 0 0137.52-.33 158.57 158.57 0 0141.67 8.16l10.09 3.2c3.45 1 6.57 1.68 10 2.5 6.92 1.36 14 2.72 21.21 3.58a369.22 369.22 0 0044.21 2.74A355 355 0 00366 152.6c7.24-.86 14.37-1.86 21.34-3.19 3.61-.71 6.55-1.45 10.59-2.33l10.53-2.17a259 259 0 0179.15-2.64c23 2.59 41.44 7.32 54.46 9.69 13 2.65 20.49 3.76 20.49 3.76l-.1 1.28-5.48-.16c-3.57-.14-8.84-.32-15.46-1-13.27-1.23-32.15-3.61-54.6-4.55a315.58 315.58 0 00-36.09.58 298.61 298.61 0 00-39.49 6l-10.46 2.5c-3 .75-7.1 1.89-10.65 2.69-7.38 1.6-14.87 3.06-22.46 4a369.69 369.69 0 01-46.1 2.82 344.24 344.24 0 01-46.1-3.23 220 220 0 01-22.48-4.21c-3.69-1-7.65-2-11.09-3.19l-10.3-3.64a167.92 167.92 0 00-38.27-9.24 284.63 284.63 0 00-35.89-2c-11.19.27-21.51.77-30.63 1.69s-17.06 2-23.54 3.24-11.58 2.23-15 3.07-5.26 1.45-5.26 1.45z" data-name="&lt;Path&gt;"/></g><g data-name="&lt;Group&gt;"><path class="cls-2" d="M432.42 114.69c-6.32-.71-12.91-1-19.3-2.29-8.23-1.65-16.44-3.68-23.79-8.1-2.51 1.94-2.93-3-2.12-5.51 1.21-3.81 2.45-7.62 3.6-11.46.73-2.42 2.46-4 4.3-5.53.87-.72 1.84-1.32 2.72-2 2.25-1.81 2.47-3.77.35-5.73a25.64 25.64 0 01-6.18-9 9.53 9.53 0 013.36-12c2.87-2 5.51-1.53 7.41 1.37a37.66 37.66 0 012.34 4.53c.58 1.22 1 2.55 1.64 3.71a2.29 2.29 0 001.66 1 18.43 18.43 0 009.7-2.52 12.42 12.42 0 0110.1-1.5 6.16 6.16 0 003-.06 13.06 13.06 0 018.44.48c3.8 1.54 7.45 3.64 11.73 3.66a9.61 9.61 0 002.86-.06 4.57 4.57 0 002.49-1.71 40.7 40.7 0 002.8-6.16c1.27-3.42 4.78-4.65 7.75-2.41 3.46 2.61 6.19 7.56 2.78 12.66q-2.25 3.37-4.72 6.58a2.69 2.69 0 00-.09 3.57 87.52 87.52 0 005.84 7.41c1.92 2.06 2.37 4.44 2.43 7 0 2-.16 4-.14 5.93 0 1.23.24 2.45.36 3.68.05.55.33 1.32.07 1.62-1.13 1.33-.31 2.27.42 3.29.33.46 1.48 1.36.92 1.42-2.07.24-5.5.66-7.5 1-9.92 1.63-13.88 5.67-23.84 7-3.27-3.01-7.44.13-11.39.13z" data-name="&lt;Path&gt;"/></g><g data-name="&lt;Group&gt;"><path class="cls-2" d="M502 110.97c-2.32-.26-4.75-.37-7.1-.84a26.85 26.85 0 01-8.74-3 1.52 1.52 0 01-.78-2c.45-1.4.9-2.8 1.32-4.21a4.3 4.3 0 011.58-2c.32-.26.68-.48 1-.74.83-.66.91-1.38.13-2.11a9.43 9.43 0 01-2.27-3.31 3.5 3.5 0 011.24-4.42 1.75 1.75 0 012.73.51 13.84 13.84 0 01.86 1.66c.21.45.36.94.6 1.37a.84.84 0 00.61.38 6.78 6.78 0 003.57-.93 4.56 4.56 0 013.71-.55 2.27 2.27 0 001.1 0 4.8 4.8 0 013.1.18 11.69 11.69 0 004.31 1.35 3.53 3.53 0 001.05 0 1.68 1.68 0 00.91-.61 15 15 0 001-2.26 1.77 1.77 0 012.85-.89 3.33 3.33 0 011 4.65q-.83 1.24-1.73 2.42a1 1 0 000 1.31 32.18 32.18 0 002.15 2.72 3.63 3.63 0 01.89 2.57c0 .73-.06 1.45-.05 2.18 0 .45.09.9.13 1.35 0 .2.12.49 0 .6-.42.49-.11.83.15 1.21a4.64 4.64 0 01.34.52c.35.66.17 1.1-.56 1.22-3.65.6-7.29 1.23-11 1.72a32 32 0 01-4.1-.05z" data-name="&lt;Path&gt;"/></g><g data-name="&lt;Group&gt;"><path class="cls-2" d="M58.06 135.54s1.78-.85 5.23-2.22a153.06 153.06 0 0115.29-5.11 298.86 298.86 0 0156.68-10.41 244.24 244.24 0 0138.83-.21 165 165 0 0143 8.52l10.52 3.36c3.58 1.08 6.92 1.79 10.48 2.66 7.25 1.45 14.63 2.85 22.19 3.77a379.66 379.66 0 0046.16 2.87 370.68 370.68 0 0046.22-2.37c7.56-.9 15-2 22.31-3.38 3.75-.75 6.93-1.55 11-2.45l11-2.28a269.85 269.85 0 0181.93-3c11.9 1.23 22.67 3.16 32.14 5l24.47 4.79c13.53 2.67 21.37 3.76 21.37 3.76l-5.68-.21c-3.7-.17-9.16-.41-16-1.16-13.77-1.34-33.39-3.95-56.81-5a325.56 325.56 0 00-37.68.46 309.15 309.15 0 00-41.3 6.16l-10.88 2.58c-3.23.8-7.37 1.95-11.06 2.78-7.63 1.64-15.38 3.12-23.24 4.06a383 383 0 01-47.76 2.89 361.25 361.25 0 01-47.75-3.33 229.39 229.39 0 01-23.25-4.34c-3.81-1-7.84-2.07-11.42-3.26l-10.69-3.76a174.34 174.34 0 00-40.14-9.58 292.11 292.11 0 00-37.51-1.95c-11.68.33-22.44.91-31.94 1.94s-17.77 2.24-24.52 3.54a173.8 173.8 0 00-21.19 4.88z" data-name="&lt;Path&gt;"/></g><g data-name="&lt;Group&gt;"><path class="cls-2" d="M51.44 113.83s1.78-.85 5.23-2.22A153 153 0 0172 106.5a298.87 298.87 0 0156.68-10.41 244.26 244.26 0 0138.83-.21 165 165 0 0143 8.52l10.49 3.36c3.58 1.08 6.92 1.79 10.48 2.66 7.25 1.45 14.63 2.85 22.19 3.77a379.66 379.66 0 0046.16 2.87 370.68 370.68 0 0046.17-2.37c7.56-.9 15-2 22.31-3.38 3.75-.75 6.93-1.55 11-2.45l11-2.28a269.85 269.85 0 0181.93-3c11.9 1.23 22.67 3.16 32.14 5l24.47 4.79c13.53 2.67 21.37 3.76 21.37 3.76l-5.68-.21c-3.7-.17-9.16-.41-16-1.16-13.77-1.34-33.39-3.95-56.81-5a325.6 325.6 0 00-37.68.46 309.15 309.15 0 00-41.3 6.16l-10.93 2.59c-3.23.8-7.37 1.95-11.06 2.78-7.63 1.64-15.38 3.12-23.24 4.06a383 383 0 01-47.76 2.89 361.22 361.22 0 01-47.76-3.34 229.34 229.34 0 01-23.24-4.39c-3.81-1-7.84-2.07-11.42-3.26l-10.69-3.74a174.34 174.34 0 00-40.14-9.58 292.11 292.11 0 00-37.51-1.92c-11.68.33-22.44.91-31.94 1.94s-17.77 2.23-24.53 3.56a173.79 173.79 0 00-21.09 4.86z" data-name="&lt;Path&gt;"/></g><g clip-path="url(#a)" data-name="&lt;Clip Group&gt;"><path class="cls-2" d="M270.55 195.31l.22-1.49c-.22-.07-.4-.2-.56-.18-3.05.43-5-1.05-6.61-3.5q-6.69-10.44-13.5-20.8a50.55 50.55 0 00-3.72-4.44c-6.66 4.52-12.48 10.07-21 12.38a25.3 25.3 0 003.59 1.92c2.24.76 4.6 1.18 6.83 2 3.09 1.08 3.9 2.88 2.9 5.86 3.1 2.4 3.63 5.53.77 9.13-2.27 2.85-3.45 5.42-2.49 9.17.65 2.54-2.44 3.25-4 3.91-3.12 1.32-6.61 1.82-10 2.56-2.19.48-3-.88-3-2.74.13-4.58.42-9.16.61-13.1-5.15-3.83-10.29-7.62-15.4-11.46-2.2-1.65-4.28-3.46-6.54-5a2.62 2.62 0 00-2.26.12c-2.08 1.18-4.05 2.56-6.62 4.23.62 4.85 1.07 10.57 5.36 14.83 1.3 1.29 3.48 1.79 5.33 2.42 4.13 1.42 5 2.57 4.41 5.21.81 1.52 1.74 2.51 1.82 3.56.32 4-2.49 6.06-5.6 7.49-.92.42-2.44-.47-4.53-1l-3.38 3.43-7-1.16 1.73-3.36c-.13-.14-.2-.27-.26-.26-4.26.64-5.81-2.37-7.48-5.38-2.44-4.38-5.3-8.56-7.44-13.07a26.27 26.27 0 01-2.09-8.75c-.29-3.13-.86-5.64-4-7.22-1.37-.69-2.27-2.35-3.33-3.62s-2.08-2.69-3.15-4c-2.2-2.72-5-5.14-6.51-8.2a69.75 69.75 0 01-5.76-15.52 27.79 27.79 0 011.48-16.45c4.67-11.51 11.14-22.17 20.62-30a65.18 65.18 0 0127.59-13.71c7-1.51 13.69-4.54 20.55-6.79 6.12-2 12.3-3.84 18.41-5.87a5.73 5.73 0 002.33-1.94c2.55-3.17 5.26-5.72 9.35-3.43l6.39-5.84c-1.4-1.28-2.61-2.21-3.77-3.28-1.45-1.43-2.05-3.32-.49-4.77a5 5 0 013.95-.69 19.81 19.81 0 014.42 2.08c2.16-3.48 3.83-6 3.67-9.55s3.61-7.07 7.25-7.88a9.15 9.15 0 012.81-.42c4 .46 5.85-2.06 7.49-5.15 1.86-3.52 4.38-6.74 5.86-10.39a37.43 37.43 0 002.48-10.71c.89-10.11 6.49-12.13 13.87-13.23 2-.29 3.92-.58 5.83-1.06 3.87-1 14.71 1.67 16.76 7.45a17.8 17.8 0 01.41 11.72 4.16 4.16 0 00-.25 3l1.91 4-4.81 1.47c-.34 1.17-3 2.7-.31 5.34 1 1-.17 2.61-1.93 3a11.73 11.73 0 00-9.09 14.94c2.16 7 6.46 12.84 11.34 18.2 2 2.2 3.48 1.72 4.08-1.15.48-2.31.54-4.7.92-7 .12-.74.84-2 1-2 1 .24 2.59.61 2.83 1.32 1 2.9 1.63 5.94 2.35 8.94a8.76 8.76 0 01.08 1.68c4.66-1.07 5.25-1.75 5-6.58-.11-2-.76-3.91-1-5.88-.24-2.47.92-3.4 3-2.08a15 15 0 014.2 4.58c1.42 2.18.54 5.54 3.63 7.06.3.15 0 2.74-.77 3.65-2.46 3.09-2.36 5 .82 6.85 2.15 1.28 2.45 4.55.52 7-4.73 6-11.09 7.48-18.34 6.63-2.7-.31-5.45-.2-8.17-.42s-5.63-.6-8.44-.94c-5.37-.64-11.44.14-14.07 7-2.06 5.39-4.81 10.51-7.28 15.74a4.45 4.45 0 01-1.09 1.65c-3.85 3-4.92 7.68-7.25 11.59a9.67 9.67 0 00-.84 3.23c-.54 3-1 6.08-1.55 9.11-.18 1-.87 2-.73 3 .79 5.23 1.73 10.44 2.7 15.64.52 2.78 2.82 3.63 5.17 4.25s4.8 1 7.11 1.7c4.1 1.32 4.7 3.61 2 7 .11.14.19.35.33.39 4.64 1.32 5.18 3.06 2.53 8.21-1 1.88-1.56 4.14-3 5.57s-3.68 2.07-5.61 3c-.75.36-1.6.53-2.39.81-1.63.59-3.29 1.1-4.86 1.82-2.53 1.16-4.91 2.73-7.52 3.62-2.09.66-4.47.66-6.82 1z" data-name="&lt;Path&gt;"/></g><g data-name="&lt;Group&gt;"><path class="cls-4" data-name="&lt;Path&gt;" d="M421.65 80.05l-1.02.94v.87l.22 1.09 1.02 1.02.87.15 1.53.07.87-.44.37-.58.14-1.23-.07-1.02-1.53-1.17-1.09-.14z"/></g><g data-name="&lt;Group&gt;"><path class="cls-4" data-name="&lt;Path&gt;" d="M439.92 82.13l1.27-1.04 1.1-.17.92.17.64.12.4.63.12.93-.06 1.04-1.16.92-.57.23-.81-.06-1.27-.46-.58-.98z"/></g><path class="cls-2" d="M398.6 306.97q-1.12-.05-2.53 0t-2.69 0a11.68 11.68 0 01-2.28-.31 1.5 1.5 0 01-1.21-.9q-.46-.42 0-.92c.34-.33.65-.63.92-.88 1-.06 1.91-.1 2.66-.12s1.45-.05 2.1-.11l1.86-.16q.89-.08 1.86-.2 1.45-4.4 2.71-8.4t2.38-8q1.15-4 2.26-8t2.36-8.49q.77-1 1.25-1a12.34 12.34 0 011.6.11q.36 2.59.52 4.37t.28 3.59q.12 1.82.3 4t.51 5.61q.16 3.47.57 6.82t.65 6.9q2.1-.22 4-.5l3.44-.49 2.43-.33q.93-.12.93 0c.14.49-.14.95-.83 1.37a15.35 15.35 0 01-2.65 1.14q-1.64.61-3.51 1.13l-3.34.93q.09 1.53.39 3.84t.62 4.89q.32 2.59.69 5.22t.63 4.77q.26 2.14.36 3.55t-.07 1.56a2.83 2.83 0 01-2-.37 5.91 5.91 0 00-1.45-.83q-.4-5.32-1.11-10.86t-1-11q-1.86.32-4.74.87t-6 .89q-.56 1.75-1.06 3.89t-1 4.09q-.49 1.95-.84 3.5a9.21 9.21 0 01-.61 2 2.38 2.38 0 01-1.43.46 1.88 1.88 0 01-1.53-.63 14.81 14.81 0 01.46-2.19q.44-1.71 1-3.77t1.19-4q.58-1.91.95-3.04zm4-3.75l2.67-.4q1.46-.21 2.72-.48t2.19-.42a7.11 7.11 0 001.1-.23q-.08-1.77-.15-2.94t-.13-2.46l-.14-3q-.08-1.71-.27-4.72-.41-5.08-.58-7.58t-.45-1.63q-1.32 4.28-2.31 7.41t-1.79 5.79q-.81 2.66-1.48 5.2t-1.35 5.48zm61.18-20.25q-.31 1.43-.7 3t-.82 3q-.43 1.43-.72 2.46c-.19.69-.32 1.11-.38 1.27q-.54 1.34-1.44 3.47t-2.09 4.45q-1.2 2.35-2.63 4.65a26.82 26.82 0 01-3 3.92q-.06 1.2.09 4.06t.4 6.17q.25 3.31.47 6.49t.22 5q-.42.38-.72-.19t-.88-2q-.38-2.11-.59-3.88t-.36-3.6q-.16-1.81-.35-3.83t-.63-4.61q-1.61 1.86-3.85 4.21a37.23 37.23 0 01-4.61 4.13 14.71 14.71 0 01-4.61 2.44 3.57 3.57 0 01-3.78-.86 4.34 4.34 0 01-.7-3 10 10 0 011.12-3.49 20.24 20.24 0 012.33-3.47q1.4-1.7 2.84-3.17t2.69-2.53q1.25-1.07 1.84-1.52 1.15-.67 1.94-1.08t1.4-.66a5.22 5.22 0 011.26-.35 6.24 6.24 0 011.61 0q-.08-1.85 0-4.42t.24-5.18q.16-2.6.38-4.85a25.81 25.81 0 01.52-3.43 17.69 17.69 0 01.93-3.66 23.61 23.61 0 011.69-3.66 18.81 18.81 0 012.19-3.12 6.78 6.78 0 012.54-1.89 4.19 4.19 0 012.74-.16 5.27 5.27 0 012.68 2.13 5.19 5.19 0 011 3.46zm-23.55 27.87a19.14 19.14 0 00-3.36 4 35.72 35.72 0 00-1.81 3.42v.76a4.18 4.18 0 00.07 1 1.79 1.79 0 00.44.86 1.23 1.23 0 001.15.25 8.06 8.06 0 002.35-1.22l1-.72 1.37-1q1.18-1.15 2.89-2.6a23 23 0 003-3.08 9.3 9.3 0 001.8-3.38 3.85 3.85 0 00-.88-3.5 4.55 4.55 0 00-1.17.11 5.23 5.23 0 00-1.52.69 23.79 23.79 0 00-2.2 1.59q-1.28 1.04-3.12 2.8zm12-6.93a17.2 17.2 0 002.56-3.3q1-1.76 2.36-4.19a29.57 29.57 0 002.14-5.45 46.23 46.23 0 001.47-6.57 25.08 25.08 0 00.26-5.66q-.21-2.42-1.49-2.64a2.36 2.36 0 00-2.13.75 11.36 11.36 0 00-1.88 2.41 19.78 19.78 0 00-1.51 3.11 22.8 22.8 0 00-.94 2.93 27.9 27.9 0 00-.57 2.87q-.18 1.28-.28 2.68t-.26 3q-.16 1.64-.51 4a24.06 24.06 0 000 2.41 15.78 15.78 0 00.23 2.06 12 12 0 00.3 1.3c.09.35.17.43.23.27zm34.9-3.94c0-.16 0-.2.24-.11a4.51 4.51 0 01.71.4 5.16 5.16 0 01.74.6.86.86 0 01.33.58 48.76 48.76 0 01-4.05 12.2 65.48 65.48 0 01-7 11.34 2.93 2.93 0 01-2 1 1.36 1.36 0 01-1.28-.94 29.2 29.2 0 01-.81-4.34q-.32-2.63-.63-5.58t-.73-6q-.43-3-1-5.63-.34-1.38.19-1.64t2.27.47q.24 0 .47 2.07t.54 5q.31 2.95.76 6.18a35.23 35.23 0 001.23 5.68q.23.17 1-.92t1.82-2.85q1-1.76 2.24-4.08t2.23-4.72q1-2.41 1.78-4.7a24.31 24.31 0 00.95-4.01zm20.77 4.54l1.38-.38a3 3 0 011.85 0 4.52 4.52 0 013.52 1.37q1.18 1.34 0 5a20.39 20.39 0 01-4.36 6.63 40 40 0 01-6.22 4.94 3.18 3.18 0 002.3 2.44 6.12 6.12 0 003.39-.37 16.56 16.56 0 003.54-1.89q1.74-1.21 2.83-2.12 1.75-1.37 2.8-2.32a26.62 26.62 0 002.24-2.35c.17-.1.26-.08.28.05a1.66 1.66 0 01-.07.6c-.07.27-.16.64-.29 1.11s-.35.69-.53 1a6 6 0 01-.73.93q-.47.5-1.22 1.19t-1.85 1.84q-1.26 1.07-2.43 2.1a15.56 15.56 0 01-2.45 1.78 8.19 8.19 0 01-2.78 1 9.12 9.12 0 01-3.41-.16 11.48 11.48 0 01-2.51-1.32 6.09 6.09 0 01-1.42-1.39 5.92 5.92 0 01-.7-1.28 4.88 4.88 0 01-.28-1 16.56 16.56 0 01-.12-4.35 24.68 24.68 0 011.93-7 20.25 20.25 0 012.42-3.71 9 9 0 012.89-2.34zm-4.18 14a23.63 23.63 0 002.52-1.45 18.07 18.07 0 002.75-2.2 15.69 15.69 0 002.3-2.83 7.37 7.37 0 001.16-3.32 2.38 2.38 0 000-1.69c-.1-.16-.2-.25-.31-.26a2.49 2.49 0 00-2.75.28 10 10 0 00-2.62 2.85 21.68 21.68 0 00-2.08 4.21 14.56 14.56 0 00-.97 4.45zm31.78-14.54q-.1 2.25-.25 4.49l-.28 4.33q-.14 2.08-.26 3.93t-.27 3.28a8.12 8.12 0 01.43-1.55q.42-1.23 1.13-2.8t1.56-3.35a22.38 22.38 0 011.79-3.13 9.86 9.86 0 011.91-2.12 1.65 1.65 0 011.75-.4 4.84 4.84 0 012.38 2.44 13 13 0 01.88 3.54q.23 2 .44 4.4a19.65 19.65 0 001.21 5.12 3.5 3.5 0 001.32 1.83 7.24 7.24 0 001.73.88 7.15 7.15 0 001.35.34c.35 0 .46.14.35.3q-2.08 1.43-3.5.88a4.62 4.62 0 01-2.35-2.24 15.61 15.61 0 01-1.47-4q-.54-2.32-1-4.47t-.76-3.65q-.33-1.5-.81-1.52-.73 0-1.63 1.29a24.56 24.56 0 00-1.87 3.13q-1 1.88-1.88 4.14t-1.68 4.23q-.77 2-1.24 3.4t-.56 1.74a7.66 7.66 0 00-1.49 0c-.19 0-.49-.24-.89-.85q.72-7 .89-13.35t.14-11c0-.48.15-.72.39-.71a1.42 1.42 0 01.79.36q.43.34.89.68a1.56 1.56 0 00.86.41zm35.36 2.21q3.46-.08 6.8-.21l7-.28a1.13 1.13 0 011 .89q.21.78-.68.89-3 .19-6.86.57a71 71 0 00-7.37 1.11q0 2.5-.07 5.1t-.11 5.14a47.09 47.09 0 00.26 4.92 19.85 19.85 0 001 4.43 4.24 4.24 0 002.17 1.71 3.82 3.82 0 002.13 0 5.54 5.54 0 001.9-1 19.55 19.55 0 001.55-1.42q.59-.54.92 0t-.76 1.65a12.66 12.66 0 01-1.26 1.15 6.56 6.56 0 01-1.77 1 7.31 7.31 0 01-2.27.46 7.4 7.4 0 01-2.68-.4 4.16 4.16 0 01-2.59-3.09 28.69 28.69 0 01-1.06-5.88q-.29-3.35-.28-7t-.1-6.52q-3.55.16-5.2.32t-2.38.21a1.6 1.6 0 01-1-.12 10.22 10.22 0 01-.85-.76 2.51 2.51 0 00.07-.76 2.23 2.23 0 010-.6.84.84 0 01.34-.47 2.55 2.55 0 011.1-.35 15.57 15.57 0 013.51-.2 34.32 34.32 0 004.47-.16v-8.67q0-1.04.08-2.73a.65.65 0 01.47-.58 3 3 0 011-.19 2.27 2.27 0 011 .21 1.11 1.11 0 01.61.63 8.77 8.77 0 01.22 2.14v3q0 1.59-.1 3.17-.07 1.58-.21 2.69zm27.87 21.7q.54.43 1.91-1.28a24.06 24.06 0 002.69-4.42 39.32 39.32 0 002.28-5.8 14.41 14.41 0 00.73-5.43.55.55 0 01.43-.58 3.2 3.2 0 01.93-.08 7 7 0 011 .13 5.28 5.28 0 01.76.19q-.24 1.76-.64 4.43t-.6 5.32a30.31 30.31 0 000 4.82 3.67 3.67 0 001.2 2.87 1.9 1.9 0 002 0 12.47 12.47 0 002.32-1.5l2-1.63q.92-.72 1.15-.47a6.63 6.63 0 01-1.49 2.59 10.65 10.65 0 01-2.47 2.06 8.8 8.8 0 01-2.86 1.11 4.33 4.33 0 01-2.68-.24c-.32-.07-.56-.39-.72-1a13.86 13.86 0 01-.39-2q-.15-1.13-.21-2.42t-.17-2.34l-1.58 2.82q-.88 1.57-1.74 3t-1.58 2.45a3.1 3.1 0 01-1.26 1.15 3.46 3.46 0 01-2.5.17 2.18 2.18 0 01-1.16-1.06c-.31-.18-.52-.73-.61-1.68s-.14-2.14-.16-3.59 0-3.08.1-4.9l.26-5.58q.13-2.85.18-5.62t0-5.11a8.13 8.13 0 011.12.13c.32.07.64.15 1 .24a1.47 1.47 0 01.78.56 27.66 27.66 0 01-.18 6.5q-.5 4.64-1 11.21v.92c0 .45 0 1 .09 1.49a7 7 0 00.33 1.54 1.7 1.7 0 00.74 1.03zm28.84-20.55q0-.72.78-.33l1.69.84q.24 1.86.35 3t.15 2.06q0 1 .06 2.09t.11 3a17.88 17.88 0 011.92-3.33 9.91 9.91 0 012.81-2.56 11.44 11.44 0 014-1.47 20.51 20.51 0 015.51-.11 1.47 1.47 0 01-.49 1.06 4 4 0 01-2.08.59 10.32 10.32 0 00-4.12 1.38 13.67 13.67 0 00-3.09 2.55 14.18 14.18 0 00-2.15 3.16q-.84 1.69-1.39 3.11-.11.72-.29 2t-.29 2.8q-.11 1.48-.21 2.88a10.26 10.26 0 000 2.21.52.52 0 01-.39.58 3.73 3.73 0 01-1 .24 2.28 2.28 0 01-1-.13c-.32-.12-.47-.32-.45-.58a121.24 121.24 0 00.21-14.26q-.37-6.02-.64-10.78zm32.7 4.15l1.38-.38a3 3 0 011.85 0 4.52 4.52 0 013.52 1.37q1.18 1.34 0 5a20.39 20.39 0 01-4.36 6.63 40 40 0 01-6.22 4.94 3.18 3.18 0 002.3 2.44 6.12 6.12 0 003.39-.37 16.56 16.56 0 003.54-1.89q1.74-1.21 2.83-2.12 1.75-1.37 2.8-2.32a26.62 26.62 0 002.24-2.35c.17-.1.26-.08.28.05a1.66 1.66 0 01-.07.6c-.07.27-.16.64-.29 1.11s-.35.69-.53 1a6 6 0 01-.73.93q-.47.5-1.22 1.19t-1.85 1.84q-1.26 1.07-2.43 2.1a15.56 15.56 0 01-2.45 1.78 8.19 8.19 0 01-2.78 1 9.12 9.12 0 01-3.41-.16 11.48 11.48 0 01-2.51-1.32 6.09 6.09 0 01-1.42-1.39 5.92 5.92 0 01-.7-1.28 4.88 4.88 0 01-.28-1 16.56 16.56 0 01-.12-4.35 24.68 24.68 0 011.93-7 20.25 20.25 0 012.42-3.71 9 9 0 012.89-2.34zm-4.18 14a23.63 23.63 0 002.52-1.45 18.07 18.07 0 002.75-2.2 15.69 15.69 0 002.3-2.83 7.37 7.37 0 001.16-3.32 2.38 2.38 0 000-1.69c-.1-.16-.2-.25-.31-.26a2.49 2.49 0 00-2.75.28 10 10 0 00-2.62 2.85 21.68 21.68 0 00-2.08 4.21 14.56 14.56 0 00-.97 4.45zM693 310.4a14.56 14.56 0 013.29 1 7.57 7.57 0 012 1.34 6.4 6.4 0 011.14 1.46l.78 1.4q-.1.32-.76-.11c-.44-.29-.87-.58-1.29-.86a9.55 9.55 0 00-4.19-1.56 13.77 13.77 0 00-4.63.07 7.1 7.1 0 00-3.49 1.65 2.8 2.8 0 00-.78 3.1 7.22 7.22 0 002.14 3.31 22.26 22.26 0 003.54 2.61q2 1.18 3.92 2.15a20.49 20.49 0 013.21 1.92c1.89-1.43 26-12.46 28.73-11.28 4.53 2-.17 9.54-.53 9.82s3.39-7.3.64-8.46c-3.52-1.49-26.48 10.23-27.6 10.86a8 8 0 011.44 1.92 6.71 6.71 0 01.6 1.92 3 3 0 01-.46 2 14 14 0 01-3.79 3.85 14.14 14.14 0 01-3.78 1.84 4.33 4.33 0 01-2.49 0 3.88 3.88 0 01-2.11-1.38 2.83 2.83 0 01-.32-2.63 7.89 7.89 0 011.6-2.5 18.35 18.35 0 012.51-2.26l2.5-1.9a11.74 11.74 0 00-2.72-2.09q-2-1.26-4.18-2.76a29 29 0 01-3.83-3.19 5.23 5.23 0 01-1.78-3.3 5.59 5.59 0 01.6-3.39 8.32 8.32 0 012.38-2.79 9.76 9.76 0 013.54-1.69 9.33 9.33 0 014.17-.07zm-2 27.49a2.6 2.6 0 002 .09 7.9 7.9 0 002.18-1.07 10.64 10.64 0 001.84-1.6 5.4 5.4 0 001.08-1.6 1.37 1.37 0 00-.38-1.42 7.46 7.46 0 00-1.35-1.31q-.91.6-2.08 1.55a17.39 17.39 0 00-2.06 2 8.33 8.33 0 00-1.33 1.95q-.46.9.1 1.41z"/><text transform="translate(0 277.89)" font-size="126.27" font-family="LuckiestGuy-Regular,Luckiest Guy" fill="#493a30">KI<tspan x="115.11" y="0" letter-spacing="-.01em">B</tspan><tspan x="188.97" y="0">O</tspan><tspan x="269.5" y="0" letter-spacing="-.05em">K</tspan><tspan x="340.52" y="0" letter-spacing="0">O </tspan><tspan x="445.71" y="0" fill="#655142" letter-spacing="0">LAND</tspan></text></g></g></svg>