<svg xmlns="http://www.w3.org/2000/svg" viewBox="0 0 126.81 64.67"><defs><style>.cls-1{fill:#493a30}</style></defs><g id="Layer_2" data-name="Layer 2"><g id="EVp"><path class="cls-1" d="M22.93 28.63A198.68 198.68 0 0127 63.89l1.6-.22c-3.27-9.9-3.07-23.22-.43-33.29a22.28 22.28 0 012.9-6.79c.79-1.17 1.89-2.94 3.19-3.59q1.3-1.94 2.8.33 2.36.49 1.64 2.43c.65 5.68-5.9 10.13-10.49 11.41-.74.21-.63 1.5.19 1.4a14.09 14.09 0 0011.66-10.48c1-3.75.35-10.45-5-7.76-6.15 3.07-8.64 11.28-9.44 17.48C24.36 44.3 23.76 55 27 64.11c.29.81 1.66.76 1.6-.22a245.23 245.23 0 00-4.35-35.63c-.18-.89-1.54-.51-1.36.37z"/><path class="cls-1" d="M15.27 16C8.92 20.19 2.22 25.6.41 33.38-.91 39.08.93 46.09 6 49.43c6.76 4.44 14.89 0 20.47-4.32a55 55 0 0016.64-21.35l-1.57-.2a101.08 101.08 0 013.11 12.94c.46 2.74.78 5.5 1 8.27.1 1.33 1 5.58.25 6.65-2.07 3-9.54-3.71-11.54-5l-10.96-7.3v1.39c4.35-2.18 22.11-13.51 25.15-8.33 1.12 1.92 1.92 5.12 4.8 2.9 2.57-2 .59-4.25 5.49-3.92 2.07.14 3.57.9 5.78.46a11.54 11.54 0 008.82-7.77.92.92 0 00-.88-1.16c-3.92-.37-6.69 2.15-7 6a.92.92 0 001.15.88 7.22 7.22 0 004.76-3.69l-1.66-.22C74 36 79.61 53.7 65.36 59.22l1.17 1.17A101.72 101.72 0 0180.4 25.08l-1.76-.74a9.19 9.19 0 003.55 11A1 1 0 0083.5 35c1.46-3 0-4.65-.31-7.75l-.37-1.9L87 24.29c.61.28 1.05 2.78 1.44 3.49a8.16 8.16 0 002 2.65c5.52 4.34 7.79-6.34 9.06-9.51h-1.96c1 4.9 6 6.53 9.71 3.19 1.34-1.21.49-1.15 2-1.51.93-.22 2.12.12 3.14-.09a9.27 9.27 0 006.2-4.64h-1.73a8.17 8.17 0 009.2 3.57c1.21-.29.7-2.12-.51-1.86a6 6 0 01-7-2.72 1 1 0 00-1.73 0 7.24 7.24 0 01-9 3.32 1 1 0 00-1.22.69l-7.28-.47c-.22-1-1.57-.81-1.89 0a20.91 20.91 0 01-1.46 3.68q-.26 3.11-3.53 1.91-2.66 1.39-3-.56c-.76-.79-.92-2.41-1.68-3.32-1.21-1.45-2.88-2.32-4.71-1.46s-2.3 2.85-2.24 4.7c0 1.37.75 2.53.92 3.85.23 1.78-.11 2.75-1.35 1.12-1-1.34-.48-4.05 0-5.46.38-1.06-1.2-1.64-1.76-.74a102.69 102.69 0 00-14 35.78c-.12.64.43 1.46 1.17 1.17 15.28-5.95 10.36-24.43 5.67-35.87a.92.92 0 00-1.59-.2l-3.67 2.83 1.15.88 5.2-4.18-.88-1.16A9.8 9.8 0 0162.59 30c-2 0-4.07-1.63-6.05-1.25a3.56 3.56 0 00-2.06 1.28c-.33.33-1.1 2.29-1.43 2.42-3.09 1.29-2.76-1.39-3.51-2.71-1.38-2.46-3.34-2.27-5.82-1.21-7.19 3.1-14.12 7.06-21.13 10.54a.82.82 0 000 1.39L39 51.49c1.76 1.21 5.81 5.27 8 2.51 2.05-2.57.41-9.16.1-12.05a99.23 99.23 0 00-3.9-18.85c-.2-.64-1.25-.92-1.57-.2a54.35 54.35 0 01-10.34 15.66c-5 5.17-12.69 11.95-20.37 10.91S.22 39.91 2 33.15c1.87-7.1 8.13-12.06 14-15.9.75-.49.05-1.71-.71-1.21zM119 3.83L118.7 6c-.12 1.06 1.47 1.16 1.78.24.94-2.8-1.06-6.24-4.18-6.24a.68.68 0 00-.18 1.32 3.69 3.69 0 012.61 4.48l1.78.24.24-2.21c.12-1.15-1.67-1.13-1.79 0z"/></g></g></svg>