<svg xmlns="http://www.w3.org/2000/svg" viewBox="0 0 331.23 138.79"><defs><style>.cls-1{fill:#493a30}</style></defs><g id="Layer_2" data-name="Layer 2"><g id="Layer_1-2" data-name="Layer 1"><path class="cls-1" d="M15.28 138.21a5.64 5.64 0 01-2.81-.78c-3.32-1.89-5.63-7-6.44-11.14A324.22 324.22 0 013.81 15.6C5 7.94 8.67-.13 15.47.2c3.16.15 5.82 2.23 7.78 4 19 17.38 21 45.54 21.39 72.89 0 3.15.1 7.06-1.72 10.2-1.66 2.86-4.63 4.69-7.54 6.32-.84.47-1.69.92-2.54 1.35a58.27 58.27 0 01.39 6.47 99.06 99.06 0 01-.74 14.2 25.78 25.78 0 005.25 2.13c8.88 2.5 18.25 0 27.31-2.34l2-.52c22.6-5.85 45.87-8.77 69.19-10.4q-24.16.69-48.21 2.1l-2.11.12 1.94-.84A47.07 47.07 0 01116 103l-.15.73a46.35 46.35 0 00-25.59 2q34.47-2 69.2-2.47c10.41-.42 20.8-.7 31.09-1 21-.56 42.79-1.13 64-3 18-1.55 36.69-4.35 51.63-14.06L283 64.9c-8.63-7.59-17.18-16.78-15.16-27.43v-.26h.26a49.29 49.29 0 0145.31 18.09c4.14 5.36 5.94 10.45 5.35 15.14-.65 5.12-4.19 10-10.54 14.39l-.85.58 21.81 19.17-.73.16c-17.19 3.73-35.16 2.73-52.53 1.76l-2.82-.16c-37.7-2.07-75.73-2.84-113.68-2.28-31 1.26-62.21 3.84-92.25 11.63l-2 .52c-9.16 2.4-18.63 4.88-27.7 2.33a26.53 26.53 0 01-5.16-2.06 53.9 53.9 0 01-1.57 7.52q2 5.54 4.48 10.89a2.63 2.63 0 001.79-.78 2.58 2.58 0 00.83-2h.75a3.49 3.49 0 01-3.64 3.55h-.22l-.09-.2q-2.34-5-4.27-10.24-.25.76-.53 1.51c-2.95 7.94-6.61 9.07-9.16 8.62h-.1a7.49 7.49 0 01-3.33 2.62 5.78 5.78 0 01-1.97.24zM15.08.94C9 .94 5.65 8.52 4.55 15.71a323.46 323.46 0 002.22 110.44c.78 4 3 8.86 6.07 10.63a4.8 4.8 0 004.16.37 6.55 6.55 0 002.79-2.15c-5.47-1.79-9.79-11.1-9.79-18.25 0-7.83 3.32-12.11 8.21-15.31a40.57 40.57 0 01-1.66-3.76c-3.09-8.1-4.08-17.66-3.1-30.09l.07-.85.58.62a53.09 53.09 0 017.6 10.47v-1.26l.52.21c6.75 2.75 9.55 10 10.56 17.41Q33.89 93.61 35 93c2.93-1.64 5.69-3.34 7.26-6 1.71-3 1.66-6.76 1.61-9.81C43.5 49.94 41.54 22 22.75 4.78c-1.87-1.71-4.4-3.69-7.31-3.78zm6 133.62c3.15.39 5.93-2.44 8.06-8.18q.44-1.19.81-2.4-1.17-3.25-2.18-6.56a53.59 53.59 0 01-5.64 15.42c-.33.57-.67 1.16-1.06 1.72zm-2.54-32.44c-4.67 3.09-7.86 7.21-7.82 14.63 0 7.64 4.77 16.25 9.55 17.65a20.37 20.37 0 001.19-1.93 53.08 53.08 0 005.83-16.62q-.54-1.84-1-3.69a36.16 36.16 0 01-7.75-10.04zm9.53 13.68q1 3.5 2.24 6.94a54.64 54.64 0 001.38-6.69 29.57 29.57 0 01-3.32-2.18q-.14.97-.3 1.93zm.41-2.78a29 29 0 003.32 2.24 99.39 99.39 0 00.69-13.8 58 58 0 00-.36-6.13c-1.31.64-2.62 1.25-3.91 1.84a58.7 58.7 0 01.25 15.83zm-1.19 0l.3 1.07c0-.25.07-.5.1-.75zm-.34-1.28l.84.72a57.92 57.92 0 00-.26-15h-.05c-1.1.5-2.18 1-3.23 1.49q1.04 6.49 2.69 12.8zm-7.77-10a35.74 35.74 0 006.76 9.09q-1.43-5.68-2.39-11.46a47.21 47.21 0 00-4.38 2.35zm169.33 1.39c28.31.09 56.6.91 84.72 2.45l2.83.16c17.07 1 34.72 1.94 51.6-1.59L306.79 85.8c-15.11 9.89-34 12.72-52.15 14.29-21.25 1.83-43 2.4-64.06 3zM14.11 68.5c-.86 11.9.14 21.11 3.12 28.91q.72 1.88 1.6 3.63a50.15 50.15 0 014.59-2.46 138.34 138.34 0 01-1.72-19.14 52.71 52.71 0 00-7.59-10.94zM22.49 81a137.8 137.8 0 001.63 17.22c1-.47 2-.93 3-1.4l.25-.11A57.22 57.22 0 0022.49 81zm0-1.76a57.82 57.82 0 015.62 17.16c1.3-.59 2.62-1.21 3.93-1.86-.92-7-3.48-14-9.62-16.84l.02 1.56zm246.06-41.37c-1.77 10.17 6.56 19.08 15 26.46l23.35 20.52 1-.69c6.17-4.3 9.6-9 10.22-13.87.57-4.48-1.18-9.39-5.2-14.58a48.55 48.55 0 00-44.37-17.84z"/><path class="cls-1" d="M15.28 138.21a6 6 0 01-3.72-1.39 11.72 11.72 0 01-2.65-3A22.53 22.53 0 016 126.28c-1-5.3-1.94-10.62-2.69-16Q1 94.29.29 78.1t.23-32.37A299.17 299.17 0 014 13.54a27.89 27.89 0 012.71-7.65A15.41 15.41 0 019.14 2.6 8.6 8.6 0 0112.6.41a8.25 8.25 0 014.1-.26 11.14 11.14 0 013.77 1.61 38.42 38.42 0 016 5.43c7.34 8 12 18.2 14.48 28.7a129.54 129.54 0 012.75 16c.58 5.38.9 10.77 1.12 16.17q.15 4 .23 8.1a32.73 32.73 0 01-.47 8.18A11.8 11.8 0 0143 88.19a13.69 13.69 0 01-2.88 3 45.59 45.59 0 01-7 4.24l.3-.56a75.69 75.69 0 01.42 10.42 87.85 87.85 0 01-.69 10.4l-.32-.64a26.59 26.59 0 0012.39 3 54.18 54.18 0 0012.88-1.68c4.25-1 8.48-2.22 12.77-3.27s8.59-2 12.91-2.88c8.65-1.73 17.36-3.1 26.11-4.2s17.52-1.92 26.31-2.57l.1 2-25.15 1.18-12.57.59c-4.19.21-8.38.36-12.57.62l-6.48.4 5.94-2.66a56.25 56.25 0 017.33-2.82 48.61 48.61 0 017.73-1.63 47.85 47.85 0 0115.76.59l1.25.26-.26 1.25-.15.73-.26 1.25-1.25-.26A45.06 45.06 0 0090.73 107l-.53-2.54q27.29-1.59 54.62-2.27l13.65-.28 13.65-.43 27.3-.85c9.1-.26 18.19-.57 27.27-1s18.15-.93 27.2-1.68a186.73 186.73 0 0026.81-3.83 77.73 77.73 0 0024.76-10l-.16 2.2-24-21.16a63.1 63.1 0 01-10.94-12.08 26.26 26.26 0 01-3.48-7.63 19 19 0 01-.25-8.49l.18-.91.9-.13a49.22 49.22 0 0122.11 1.76 50.78 50.78 0 0119.21 11 44.61 44.61 0 017.24 8.5A21.9 21.9 0 01320 68a15.25 15.25 0 01-.88 5.77 18.86 18.86 0 01-2.79 5 34.21 34.21 0 01-8.33 7.46l.1-1.63 21.74 19.25 1.37 1.21-1.79.39c-12.3 2.69-24.94 3-37.39 2.56-6.24-.22-12.46-.6-18.68-1s-12.43-.7-18.65-1q-37.31-1.77-74.69-1.82-9.34 0-18.68.08c-6.22.13-12.44.46-18.66.79-12.43.7-24.85 1.77-37.19 3.4a323.41 323.41 0 00-36.69 6.88c-6 1.49-12 3.3-18.25 4a37.07 37.07 0 01-9.34 0 26.73 26.73 0 01-8.88-2.85l.13-.07a54 54 0 01-1.64 7.58q2 5.54 4.47 10.89h-.06a2.69 2.69 0 002.56-2.7V132h.85a3.41 3.41 0 01-1.15 2.68 3.61 3.61 0 01-1.28.77 3.24 3.24 0 01-1.48.13q-2.39-5.13-4.35-10.44h.06a25.34 25.34 0 01-3.34 6.86 8.89 8.89 0 01-2.8 2.6 5.41 5.41 0 01-3.72.61 8.39 8.39 0 01-2.31 2.13 6 6 0 01-2.98.87zm0 0a6 6 0 003-.85 8.38 8.38 0 002.3-2.13 5.38 5.38 0 003.7-.62 8.86 8.86 0 002.78-2.61 25.29 25.29 0 003.28-6.9v-.08.08q2 5.3 4.37 10.42a3.27 3.27 0 002.69-.88 3.3 3.3 0 001.11-2.6l.06.05h-.75l.05-.06a2.81 2.81 0 01-2.67 2.83q-2.49-5.34-4.5-10.88a53.84 53.84 0 001.64-7.51v-.12l.11.06a26.54 26.54 0 008.83 2.8 36.86 36.86 0 009.29 0c6.19-.71 12.17-2.53 18.21-4a323.74 323.74 0 0136.71-7c12.35-1.68 24.78-2.74 37.21-3.54 6.22-.38 12.44-.75 18.67-.93s12.46-.17 18.69-.21q37.38-.2 74.75 1.28c6.23.24 12.45.54 18.67.85s12.44.66 18.65.84c12.41.34 24.88-.06 37-2.79l-.42 1.6-21.88-19.1-1-.88 1.11-.75a32.17 32.17 0 007.78-7.05 14.33 14.33 0 003.09-9.53 19.69 19.69 0 00-3.47-9.58 42.33 42.33 0 00-6.91-8 48.34 48.34 0 00-18.35-10.32 46.68 46.68 0 00-21-1.61l1.08-1a16.39 16.39 0 00.23 7.36 23.66 23.66 0 003.16 6.85 60.62 60.62 0 0010.52 11.51l24 21.08 1.37 1.2-1.53 1a80.51 80.51 0 01-25.62 10.43 189.48 189.48 0 01-27.21 4c-9.1.79-18.2 1.34-27.31 1.77s-18.22.67-27.32.91l-27.3.78-13.65.39-13.66.24q-27.28.6-54.54 2.11l-8.64.48 8.11-3a47.64 47.64 0 0126.31-2l-1.51 1 .16-.73 1 1.51a46.33 46.33 0 00-22.28.86 53.81 53.81 0 00-7.07 2.67l-.54-2.26c4.19-.23 8.39-.35 12.59-.54l12.59-.5 25.18-1 .1 2c-8.76.58-17.51 1.35-26.23 2.37s-17.4 2.34-26 4q-6.46 1.25-12.86 2.78c-4.26 1-8.5 2.2-12.81 3.19a55.52 55.52 0 01-13.23 1.62 27.9 27.9 0 01-13-3.28l-.38-.21.06-.42a86.65 86.65 0 00.76-10.25A74.59 74.59 0 0032.3 95v-.38l.35-.18a44.71 44.71 0 006.85-4.08 12.67 12.67 0 002.69-2.79 10.8 10.8 0 001.52-3.53 31.93 31.93 0 00.5-7.93q0-4-.17-8.08c-.18-5.38-.46-10.76-1-16.12A128.84 128.84 0 0040.36 36c-2.43-10.4-6.91-20.54-14.18-28.51a38.08 38.08 0 00-5.95-5.38A10.72 10.72 0 0016.61.55a7.84 7.84 0 00-3.89.24c-2.55.81-4.38 3-5.68 5.29a27.53 27.53 0 00-2.69 7.54A299.05 299.05 0 00.79 45.75Q-.16 61.9.47 78.09t2.94 32.21c.74 5.34 1.66 10.66 2.64 16a22.5 22.5 0 002.89 7.5 11.7 11.7 0 002.63 3 6 6 0 003.71 1.41z"/><path class="cls-1" d="M15.08.94a7.13 7.13 0 00-4.36 1.55 12.13 12.13 0 00-3 3.59 27.15 27.15 0 00-3 8.89C3.79 21.2 3 27.45 2.48 33.72a307.19 307.19 0 00-1 37.69 323.86 323.86 0 003.46 37.5c.44 3.11 1 6.2 1.53 9.29.26 1.55.59 3.08.88 4.62s.56 3.12 1 4.52a21.51 21.51 0 001.64 4.13 12 12 0 002.52 3.4 4 4 0 003.25 1.22 4.68 4.68 0 003-1.93l.63 2.17a11.47 11.47 0 01-4.65-3.21 20.55 20.55 0 01-3-4.4 28.08 28.08 0 01-3-10.06 24.19 24.19 0 01.1-5.33 18.33 18.33 0 011.46-5.22 16.25 16.25 0 013.06-4.53 23 23 0 014.14-3.38l-.52 1.92c-.61-1.41-1.25-2.8-1.82-4.22S14 95 13.65 93.54A58.63 58.63 0 0112 84.6a94.31 94.31 0 01.13-18l.26-3 2 2.2c.77.83 1.59 1.73 2.33 2.64s1.57 1.86 2.28 2.81a52.46 52.46 0 013.76 6l-2.28.6v-3l1.65.67a15.77 15.77 0 015 3.13 17.72 17.72 0 013.48 4.66 32 32 0 013.12 10.82l-1.36-.71a51.17 51.17 0 005.78-3.28 10.76 10.76 0 004.07-4.71 17.77 17.77 0 001-6.39v-6.77c-.08-4.52-.16-9-.45-13.54-.1-2.26-.33-4.5-.5-6.75l-.37-3.36-.19-1.68-.25-1.67A97.37 97.37 0 0038.65 32a74.35 74.35 0 00-4.9-12.61A58.82 58.82 0 0026.09 8.2l-2.38-2.41a23.77 23.77 0 00-2.49-2.29A10.21 10.21 0 0015.08.94zm0 0a10.22 10.22 0 016.16 2.53 23.81 23.81 0 012.51 2.28l2.4 2.4a59.69 59.69 0 017.73 11.13A74.58 74.58 0 0139 31.86a107.66 107.66 0 013 13.25l.29 1.68.23 1.68.48 3.37c.22 2.25.51 4.51.66 6.77.4 4.52.59 9 .77 13.57.06 2.27.16 4.52.19 6.8a19.16 19.16 0 01-1 7 12.39 12.39 0 01-4.52 5.53A52.65 52.65 0 0133.17 95l-1.17.66-.2-1.34a30.08 30.08 0 00-3.14-10.05 15.51 15.51 0 00-3.14-4 13.36 13.36 0 00-4.32-2.57l1.66-1.12v1.25l.14 4.7-2.36-4.11a56.29 56.29 0 00-3.7-5.64q-1-1.35-2.11-2.63a58.54 58.54 0 00-2.28-2.5l2.31-.81c-.21 2.94-.36 5.84-.36 8.76a82.61 82.61 0 00.44 8.69 55.73 55.73 0 001.57 8.48c.38 1.38.82 2.75 1.32 4.08s1.15 2.61 1.71 3.91L20 102l-1 .69a16.13 16.13 0 00-6.12 6.65 18.3 18.3 0 00-1.35 9 25.23 25.23 0 002.68 9 18.28 18.28 0 002.58 3.84 8.8 8.8 0 003.44 2.51l1.88.67-1.25 1.5a8.94 8.94 0 01-2.06 1.86 6.56 6.56 0 01-2.77 1 6 6 0 01-3-.4 8.11 8.11 0 01-2.36-1.53 14.51 14.51 0 01-3-4.18A23.55 23.55 0 015.94 128c-.41-1.65-.6-3.17-.88-4.73s-.55-3.11-.78-4.67c-.46-3.12-.95-6.24-1.32-9.38A325.39 325.39 0 01.38 71.43a343.24 343.24 0 011.81-37.74c.61-6.27 1.5-12.5 2.44-18.73a27.22 27.22 0 013-8.9 12.16 12.16 0 013-3.58A7.15 7.15 0 0115.08.94z"/><path class="cls-1" d="M21.07 134.56a5 5 0 003.15-1.45 10.71 10.71 0 002-2.83 24.15 24.15 0 001.34-3.28c.39-1.12.69-2.3 1-3.44v.89c-.8-2.19-1.57-4.39-2.28-6.61l2.88-.14a40.55 40.55 0 01-3 9 35.52 35.52 0 01-2.28 4.14c-.43.66-.86 1.31-1.34 1.94a8.71 8.71 0 01-.72.83 11.63 11.63 0 00-.75.95zm0 0c.13-.3.26-.64.39-1s.35-.81.46-1.16c.26-.73.55-1.44.79-2.17.52-1.44 1-2.89 1.43-4.34.85-2.91 1.6-5.82 2.16-8.77l1-5.45 1.89 5.33c.75 2.16 1.43 4.33 2.09 6.52l.16.53-.14.36c-.46 1.2-.88 2.4-1.45 3.57a20.89 20.89 0 01-2 3.36A10 10 0 0124.9 134a4.76 4.76 0 01-3.83.56z"/><path class="cls-1" d="M18.54 102.12a17.5 17.5 0 00-5.68 7.35 15.36 15.36 0 00-1 4.44 21.73 21.73 0 00.12 4.56 24.82 24.82 0 002.89 8.59 18.41 18.41 0 002.56 3.62 8.16 8.16 0 003.26 2.32l-1.64.57c.4-.66.83-1.29 1.23-2s.77-1.42 1.13-2.14c.71-1.45 1.37-2.93 2-4.43s1.13-3 1.59-4.6.9-3.13 1.24-4.72v.49c-.31-1.25-.59-2.51-.86-3.77l.27.45a31.3 31.3 0 01-4.12-5 31.94 31.94 0 01-2.99-5.73zm0 0a46.75 46.75 0 003.85 5 38.76 38.76 0 004.49 4.32l.17.14.1.31c.41 1.21.81 2.41 1.19 3.62l.07.21v.28c-.24 1.68-.54 3.36-.93 5s-.89 3.29-1.45 4.9a43.46 43.46 0 01-2 4.74c-.37.77-.76 1.53-1.16 2.29s-.92 1.52-1.38 2.28l-.55.91-1.09-.34a10.5 10.5 0 01-4.57-3.15 21 21 0 01-2.92-4.26 26.27 26.27 0 01-1.84-4.72 21.82 21.82 0 01-.88-5 22.38 22.38 0 01.26-5 17.07 17.07 0 011.58-4.8 16 16 0 017.06-6.73z"/><path class="cls-1" d="M28.07 115.8a28.84 28.84 0 012.06 3.28 30.94 30.94 0 011.5 3.19l-2.68.09c.44-2.17.9-4.32 1.46-6.5l.64 1.31a14.93 14.93 0 01-3.05-2.81l1-.4c-.29.58-.59 1.19-.93 1.84zm0 0a12.34 12.34 0 01-.3-2l-.05-.82 1 .43 3.59 1.53.69.29v1a24 24 0 01-1.3 6.88l-1.56 4.49-1.14-4.39a33.38 33.38 0 01-.74-3.75 18.71 18.71 0 01-.19-3.66z"/><path class="cls-1" d="M28.47 113a54 54 0 003.6 1.75l-.84.41v-5c0-1.69-.06-3.29-.09-4.94l-.14-4.87c-.07-1.62-.18-3.24-.34-4.85l2.14 1.17c-1.32.61-2.65 1.2-4 1.78l.8-1.48c.16 1.35.27 2.7.3 4.06s0 2.71-.07 4.06a35.94 35.94 0 01-1.36 7.91zm0 0c-.13-2.68-.28-5.31-.54-7.92-.15-1.3-.26-2.6-.47-3.88s-.39-2.57-.63-3.84l-.18-1 1-.51c1.27-.65 2.55-1.28 3.83-1.9l1.88-.9.26 2.07a45.62 45.62 0 01.33 5.11c0 1.71 0 3.36-.14 5.05s-.28 3.36-.49 5a50 50 0 01-1 5l-.22.87-.62-.45a20.36 20.36 0 01-3.01-2.7z"/><path class="cls-1" d="M27.28 113a2.12 2.12 0 00.6.72 1 1 0 00.61.21c.37 0 .52-.22.53-.27l-2.91.19c0-.25.15-.47.51-.68l.4 1a.63.63 0 00.44-.35.8.8 0 00-.18-.82zm0 0c-.09-.18 0-.38.23-.49a1.2 1.2 0 01.84 0l.4 1a.84.84 0 01.3.82l-1.6 5.79-1.31-5.6a1.74 1.74 0 01.23-1.34.74.74 0 01.46-.32.46.46 0 01.45.14z"/><path class="cls-1" d="M26.94 111.75l1 .53-.4.16c-.18-2.53-.38-5-.61-7.45s-.53-4.87-.89-7.28l2.08 1.16-1.62.74-1.64.71.81-1.54c.28 2.13.55 4.27.78 6.42.09 1.08.23 2.16.3 3.25s.16 2.19.19 3.3zm0 0a30 30 0 01-1.38-3c-.43-1-.76-2.06-1.12-3.1a56.86 56.86 0 01-1.63-6.38l-.2-1 1-.49 1.64-.8 1.67-.78 1.79-.84.29 2a38.14 38.14 0 01.35 7.68A32 32 0 0128 112.5l-.15.48-.25-.32c-.22-.32-.46-.66-.66-.91z"/><path class="cls-1" d="M19.17 101.72l1.94 2.14c.65.69 1.25 1.4 1.91 2.06 1.27 1.35 2.57 2.64 3.92 3.85l-2.42 1.4a52 52 0 01-1.31-5.77 43.61 43.61 0 01-.6-5.9l1.34.69c-.67.25-1.37.46-2.17.69s-1.66.5-2.61.84zm0 0c.51-.45 1.09-1 1.75-1.54a27.52 27.52 0 012.2-1.68l.93-.64.41 1.33c.58 1.87 1.08 3.74 1.55 5.62s.9 3.76 1.32 5.64l1.09 5-3.51-3.61a24 24 0 01-3.56-4.71 23.2 23.2 0 01-1.29-2.64 16.53 16.53 0 01-.89-2.77zm169.33 1.39c11.62-.28 23.23-.28 34.86-.23s23.24.42 34.85.8c5.81.2 11.62.41 17.42.72s11.59.58 17.37.71c11.54.26 23.12-.08 34.34-2.43l-.68 2.58-20.83-18.37 1.76.12c-8.67 5.64-18.56 9-28.5 11s-20.1 2.86-30.15 3.53-20.14 1.08-30.22 1.25-20.14.33-30.22.32zm0 0l30.18-1.53c10.05-.59 20.1-1.14 30.11-2a237.66 237.66 0 0029.75-4.07c9.72-2.14 19.2-5.5 27.45-10.88l.93-.6.83.73L328.62 103l2.26 2-2.94.6c-11.57 2.35-23.38 2.72-35 2.31s-23.22-1.33-34.81-2-23.18-1.19-34.79-1.63-23.23-.81-34.84-1.17z"/><path class="cls-1" d="M14.11 68.5c.1 2.81.2 5.54.4 8.31s.5 5.48.91 8.17a62.29 62.29 0 001.78 7.92c.39 1.29.85 2.55 1.31 3.81l1.63 3.66-2.1-.6c1.56-.87 3.14-1.71 4.72-2.53L22 98.81c-.5-3.2-.86-6.42-1.06-9.65-.11-1.61-.19-3.23-.2-4.85s0-3.23 0-4.85l.11.44a63.68 63.68 0 00-3.05-5.83c-1.16-1.9-2.37-3.76-3.69-5.57zm0 0a39.91 39.91 0 014.62 4.9 46.8 46.8 0 013.84 5.6l.09.15v.28c.12 1.59.22 3.17.38 4.76l.49 4.74c.38 3.15.81 6.29 1.32 9.42l.17 1-1 .55c-1.47.82-3 1.62-4.45 2.39l-1.51.78-.59-1.38c-.57-1.32-1.15-2.64-1.69-4a38.52 38.52 0 01-1.26-4.1 47.69 47.69 0 01-1.36-8.4 60.6 60.6 0 01-.07-8.43 70.46 70.46 0 011.02-8.26z"/><path class="cls-1" d="M22.49 81c.35 1.43.61 2.86.89 4.28s.54 2.84.76 4.25c.52 2.83 1 5.64 1.45 8.46l-2.11-1.11c1.1-.52 2.19-1 3.31-1.52L25.94 97q-.29-2-.66-4c-.25-1.32-.5-2.65-.8-4s-.61-2.65-1-4zm0 0a27.47 27.47 0 012.27 3.54 35 35 0 011.79 3.81 40.51 40.51 0 011.37 4q.57 2 .94 4.12l.2 1.1-1 .49c-1.07.5-2.17 1-3.26 1.51l-1.83.81-.28-1.92a64.83 64.83 0 01-.72-8.71c0-1.46 0-2.92.08-4.38a39.84 39.84 0 01.44-4.37z"/><path class="cls-1" d="M22.44 79.26a31.36 31.36 0 012.49 3.86 41 41 0 012 4.16c.56 1.43 1.11 2.88 1.53 4.37a44.37 44.37 0 011.07 4.51l-2-1.09c1.28-.64 2.58-1.26 3.87-1.88l-.82 1.54a37.47 37.47 0 00-2.32-9.37 18.65 18.65 0 00-2.35-4.14 14.32 14.32 0 00-3.57-3.3l.36-.23zm0 0c-.1-.5-.18-1-.27-1.55l-.06-.35.41.12a12 12 0 014.57 2.62 16.28 16.28 0 013.31 4.21 28.17 28.17 0 013.12 10l.15 1.08-1 .45c-1.33.62-2.65 1.24-4 1.84l-1.77.78-.27-1.87q-.32-2.19-.74-4.36c-.29-1.45-.59-2.91-1-4.34s-.76-2.88-1.17-4.33-.81-2.84-1.28-4.3zm246.11-41.39a17 17 0 00.88 7.66 26.16 26.16 0 003.67 6.75 67 67 0 0010.86 11c4 3.39 8 6.75 12 10.18s8 6.82 11.89 10.27l-1.77-.12a31.38 31.38 0 007.52-6.71 13.34 13.34 0 003.14-8.82 19.09 19.09 0 00-3.24-9.17 41.42 41.42 0 00-6.58-7.83 49.08 49.08 0 00-17.63-10.64 49.65 49.65 0 00-20.74-2.57zm0 0a45.43 45.43 0 0121.2 1 48.65 48.65 0 0118.85 10.36 44 44 0 017.21 8.2A21.11 21.11 0 01319.63 68a14.74 14.74 0 01-.89 5.77 18.32 18.32 0 01-2.81 5 34.26 34.26 0 01-8.27 7.31l-.94.62-.82-.7c-3.93-3.46-7.82-7-11.71-10.48s-7.76-7-11.63-10.57A62.66 62.66 0 01272 53a25.49 25.49 0 01-3.29-7.27 16.51 16.51 0 01-.16-7.86zm-117.3 49.95l-.18-.73C163 84.18 175 80.92 186.7 77.41q2-.6 3.76-1.28a6.83 6.83 0 011.42-10.81 12.5 12.5 0 0110.66-1.05l.26.1v.27c-.24 4.86-3.92 8.8-11 11.75a10.33 10.33 0 007.55 2.24c5-.61 9.23-4.15 12.66-7.09-2.21-2.58-6.33-2.52-10.1-2.1l-.08-.75c4.11-.46 8.63-.49 11 2.67l.21.28-.27.23c-3.56 3.05-8 6.85-13.33 7.51a11.12 11.12 0 01-8.42-2.66q-1.91.76-4.14 1.42a716.76 716.76 0 01-35.63 9.68zm47.09-23.54a11.35 11.35 0 00-6.05 1.72 6.1 6.1 0 00-1.07 9.88c6.81-2.79 10.44-6.46 10.8-11a11.35 11.35 0 00-3.68-.6z"/><path class="cls-1" d="M151.25 87.82l-.2-.72c6.55-1.89 13.12-3.73 19.63-5.73l9.77-3 4.87-1.54c.82-.25 1.61-.53 2.39-.82l2.36-.84-.39 1.72a8.16 8.16 0 01-2.39-6.27 7.67 7.67 0 011-3.34 8.72 8.72 0 012.31-2.56 12.64 12.64 0 016.14-2.36 13.68 13.68 0 016.49.77l.89.35v1a11.18 11.18 0 01-1.15 4.7 13.59 13.59 0 01-2.83 3.82 26.17 26.17 0 01-7.74 4.77l.36-2.47a9 9 0 004.45 1.88 7.62 7.62 0 002.41-.05 11.94 11.94 0 002.46-.67 21.31 21.31 0 004.65-2.56c1.49-1 2.91-2.23 4.35-3.46l-.16 2.08a5.74 5.74 0 00-3.8-1.72 22.35 22.35 0 00-5 .1l-1.45.16-.15-1.44-.08-.75-.15-1.44 1.43-.15a23.58 23.58 0 016.47 0 10.16 10.16 0 013.32 1.13 7.76 7.76 0 011.49 1.07 5.69 5.69 0 01.64.67l.29.36.23.31.77 1-1 .82c-1.59 1.34-3.21 2.71-5 4a23.67 23.67 0 01-5.79 3.1 15.61 15.61 0 01-3.28.79 11.24 11.24 0 01-3.46-.07 12.32 12.32 0 01-6.11-2.94l1.1.19c-1.67.54-3.35 1.13-5 1.59l-5 1.36c-3.33.9-6.67 1.77-10 2.58-6.67 1.63-13.39 3.22-20.14 4.58zm0 0l9.93-2.82q5-1.44 9.9-2.94L181 79l4.92-1.56c1.63-.53 3.19-1.15 4.78-1.7l.62-.21.48.41a10.13 10.13 0 005.06 2.25 8.87 8.87 0 002.76 0 13.18 13.18 0 002.76-.75 22.33 22.33 0 005.12-2.89c1.62-1.18 3.16-2.52 4.73-3.89l-.2 1.85-.23-.3-.2-.23a3.19 3.19 0 00-.42-.42 5 5 0 00-1-.69 7.39 7.39 0 00-2.44-.77 22.5 22.5 0 00-5.7.07l1.28-1.59.08.75-1.61-1.33a25.07 25.07 0 015.69-.12 10.85 10.85 0 013 .76 7.33 7.33 0 012.7 1.94l1 1.12-1.12 1c-1.45 1.25-2.93 2.51-4.56 3.66a23 23 0 01-5.33 2.9 14.9 14.9 0 01-3 .8 10.61 10.61 0 01-3.27 0 12 12 0 01-5.91-2.55L189 76l2.23-.95a24 24 0 006.92-4.16 10.79 10.79 0 002.33-3 8.4 8.4 0 00.93-3.6l.88 1.33a11 11 0 00-5.27-.72 10.48 10.48 0 00-5 1.76 5.69 5.69 0 00-2.51 4.12 5.94 5.94 0 001.65 4.62l1.1 1.2-1.5.52c-3.32 1.14-6.6 2-9.9 2.89s-6.6 1.75-9.91 2.56c-6.63 1.61-13.27 3.2-20 4.54z"/><path class="cls-1" d="M198.34 64.28a9.88 9.88 0 00-4.32 1 7.18 7.18 0 00-3.11 2.84 5.12 5.12 0 00-.49 3.68 6.15 6.15 0 001.85 3l-1.61-.32c1.19-.53 2.37-1 3.52-1.61a28.64 28.64 0 003.33-1.87 11.52 11.52 0 002.83-2.55 8 8 0 001.55-3.57l.11.12a9.49 9.49 0 00-3.66-.72zm0 0a14.06 14.06 0 013.72.47h.09v.11a10.71 10.71 0 01-.88 4.09 12.65 12.65 0 01-2.38 3.6 16.39 16.39 0 01-3.32 2.74 22.76 22.76 0 01-3.79 1.89l-.93.36-.68-.68a7.27 7.27 0 01-2.17-4.8 6.61 6.61 0 011.82-4.77 9.34 9.34 0 014.07-2.36 15.17 15.17 0 014.45-.65zM72 91.22l-.47-.58a38.76 38.76 0 0130.1-8l-.12.74A38 38 0 0072 91.22z"/><path class="cls-1" d="M72 91.22l-.54-.53-.05-.05.06-.07a31.19 31.19 0 016.44-4.94 35.52 35.52 0 017.53-3.28 37.33 37.33 0 018.13-1.52 37.92 37.92 0 018.3.37l1.49.23-.26 1.49-.13.74-.26 1.49-1.46-.26a37.68 37.68 0 00-7.51-.49 41.92 41.92 0 00-7.53.93A44.52 44.52 0 0072 91.22zm0 0a30.41 30.41 0 016.28-4.87 34.7 34.7 0 017.36-3.23 35.55 35.55 0 0116.11-1.17l-1.71 1.23.11-.74 1.24 1.72a36.85 36.85 0 00-7.67-.47 41.49 41.49 0 00-7.67 1A44 44 0 0078.62 87a46.5 46.5 0 00-7 3.68v-.12c.11.22.24.44.38.66z"/></g></g></svg>